/* XPM */
static char *result[] = {
/* columns rows colors chars-per-pixel */
"64 64 234 2 ",
"   c #3C1C1E",
".  c #3D261D",
"X  c #3E242E",
"o  c #362A2B",
"O  c #2D2738",
"+  c #332534",
"@  c #3C2533",
"#  c #3F2937",
"$  c #35253B",
"%  c #39253A",
"&  c #352A3C",
"*  c #3C2A3A",
"=  c #34383B",
"-  c #421D1F",
";  c #532C1D",
":  c #5B2D1C",
">  c #79391F",
",  c #481E26",
"<  c #41242D",
"1  c #492429",
"2  c #4C2A2D",
"3  c #532624",
"4  c #542A25",
"5  c #5A2B23",
"6  c #562729",
"7  c #512A2A",
"8  c #5B2C2B",
"9  c #583228",
"0  c #5C3329",
"q  c #442433",
"w  c #452A34",
"e  c #4A2A32",
"r  c #43293A",
"t  c #522B31",
"y  c #573539",
"u  c #682E24",
"i  c #602F2C",
"p  c #762F29",
"a  c #653329",
"s  c #763D25",
"d  c #7A3C26",
"f  c #75342A",
"g  c #74362E",
"h  c #753B2D",
"j  c #793C2D",
"k  c #6B3B33",
"l  c #653A39",
"z  c #6B3C3B",
"x  c #733733",
"c  c #7A3536",
"v  c #753A33",
"b  c #793C32",
"n  c #763738",
"m  c #743939",
"M  c #793C39",
"N  c #51493C",
"B  c #79452C",
"V  c #6A4336",
"C  c #6D423A",
"Z  c #724137",
"A  c #7D4234",
"S  c #7B4B33",
"D  c #72413A",
"F  c #7D4139",
"G  c #7C5238",
"H  c #3A2B44",
"J  c #373846",
"K  c #3D344C",
"L  c #3C3A4B",
"P  c #3C3654",
"I  c #3D3B53",
"U  c #373558",
"Y  c #3B395B",
"T  c #3D3B65",
"R  c #48384A",
"E  c #553645",
"W  c #5A3A43",
"Q  c #553C4B",
"!  c #5D394A",
"~  c #4B3255",
"^  c #433A55",
"/  c #463658",
"(  c #602E45",
")  c #683B46",
"_  c #753D43",
"`  c #473861",
"'  c #324E51",
"]  c #51494F",
"[  c #46465A",
"{  c #574759",
"}  c #55565D",
"|  c #684646",
" . c #734444",
".. c #61544C",
"X. c #684A53",
"o. c #665857",
"O. c #4D615D",
"+. c #54615F",
"@. c #766456",
"#. c #494865",
"$. c #514B62",
"%. c #4B5568",
"&. c #565766",
"*. c #545C6C",
"=. c #5C5D6E",
"-. c #5A5D76",
";. c #625A6B",
":. c #645E7B",
">. c #4C676D",
",. c #596467",
"<. c #5C646D",
"1. c #556372",
"2. c #5B6373",
"3. c #596478",
"4. c #67666A",
"5. c #72736D",
"6. c #646776",
"7. c #833A26",
"8. c #803C3C",
"9. c #8A4A27",
"0. c #84462D",
"q. c #83492C",
"w. c #8C4E2E",
"e. c #914E2D",
"r. c #85512F",
"t. c #8C522D",
"y. c #93522D",
"u. c #985A2C",
"i. c #854735",
"p. c #854C35",
"a. c #8B4D35",
"s. c #83453C",
"d. c #8E443B",
"f. c #864D3B",
"g. c #8C4E3A",
"h. c #914D35",
"j. c #924D3B",
"k. c #855135",
"l. c #8C5235",
"z. c #895C35",
"x. c #83523A",
"c. c #8C523B",
"v. c #8A583A",
"b. c #925435",
"n. c #985635",
"m. c #9B5C34",
"M. c #93543C",
"N. c #965A3D",
"B. c #9A5C3B",
"V. c #A0582A",
"C. c #A95F39",
"Z. c #92632E",
"A. c #9C6635",
"S. c #9D623C",
"D. c #A56635",
"F. c #AA6534",
"G. c #A56935",
"H. c #A86835",
"J. c #AF6C34",
"K. c #A4653C",
"L. c #A9653C",
"P. c #A5693C",
"I. c #AA6A3C",
"U. c #A77438",
"Y. c #933F40",
"T. c #874145",
"R. c #854C41",
"E. c #8B4E41",
"W. c #924E42",
"Q. c #9F4D43",
"!. c #865546",
"~. c #8B5342",
"^. c #945342",
"/. c #9A5746",
"(. c #965B42",
"). c #9A5C42",
"_. c #8A5154",
"`. c #A65E46",
"'. c #9E6142",
"]. c #976946",
"[. c #9F6048",
"{. c #906D52",
"}. c #98715C",
"|. c #A56442",
" X c #AA6543",
".X c #A56943",
"XX c #AA6942",
"oX c #A16349",
"OX c #A9634A",
"+X c #A66949",
"@X c #A96949",
"#X c #B76D42",
"$X c #A67446",
"%X c #AB7243",
"&X c #7B8A6F",
"*X c #878C7B",
"=X c #858C7C",
"-X c #908F70",
";X c #B28E6E",
":X c #B1A37B",
">X c #D9994B",
",X c #C78651",
"<X c #D89859",
"1X c #616181",
"2X c #7E848D",
"3X c #848B82",
"4X c #878A85",
"5X c #899283",
"6X c #969C85",
"7X c #888A92",
"8X c #A79681",
"9X c #9BA58C",
"0X c #9FAE97",
"qX c #A8A98B",
"wX c #A6B388",
"eX c #A6AA96",
"rX c #ABB294",
"tX c #A9B498",
"yX c #BAB894",
"uX c #B4BD9D",
"iX c #ACB4A6",
"pX c #BABBA6",
"aX c #B1BEB0",
"sX c #C19E83",
"dX c #C7BA96",
"fX c #CABBAC",
"gX c #AEC19C",
"hX c #B3C49B",
"jX c #BAC59A",
"kX c #BBC2A9",
"lX c #B1C5B0",
"zX c #C3C199",
"xX c #C5C1B3",
"cX c #E1C2A0",
/* pixels */
"g.p.w.D.<XU.7 7 7 7 7 7 7 4 4 7 7 2 2 7 7 7 7 2 7 7 7 7 7 7 7 2 2 2 7 4 7 2 7 2 7 7 7 7 7 7 7 7 7 6 6 4 7 7 2 7 2 7 7 7 7 7 7 2 ",
"x h g.N.G.r.% @ < < < X @ @ @ X X X X X @ @ @ q < @ @ @ X @ < < < q X @ X X X < < @ # @ @ @ X X < X X @ X X q X < @ X @ X X X X ",
"m v g.b.K.x.$ # 2 e e 2 w @ % w e e 2 w q # # 7 2 e e r @ % e 7 2 e r @ X w 2 2 e w * @ w w e 2 7 e % @ w w e w e # + w w 2 2 @ ",
"F s v.l.|.x.+ e 7 6 4 7 2 X @ 2 4 4 7 7 1 @ e 7 6 7 2 1 X X 6 5 3 6 2 < < 2 7 4 4 2 r @ 2 8 7 6 6 2 X < 6 7 7 7 7 1 X 1 7 7 4 # ",
"l.g.g.b.|.k.+ 3 3 3 3 : 5 , 1 5 5 5 8 : 1 q 6 5 5 : 5 8 - 1 5 8 4 5 : - e 7 5 5 ; : 4 1 2 8 : : : 5 1 1 4 5 8 8 : t q 7 ; 3 e # ",
"h.g.h.m.G.q.% D p.f.k.D.P.h h p.h.a.Q.XXB m a.a.`.L.|.).h B c.g.g.B.K.s k g.h.c.w.K.N.h A h.m.L.D.+Xh h l.k.h.^.XXc.M p.z.8 t # ",
"g.g.h.L.<X%XH D a.a.c.K.+Xv h g.h.a.N.L.B v a.a.L.L.L.oXb h l.c.g.B.K.B k E.h.d.l. X).v A h.B.L.D.|.j h l.l.b.^.P.b.m p.k.0 2 w ",
"W.l.g.b.D.f.@ V k.a.v.A.].m p Q.n.A. XL.i.M a.a.L. XK.'.M h c.a.a.B.K.d v E.g.+X|.K.).b M a.N.K.D.XXv M c.k.g.M.XXz.m p.l.a 2 # ",
"c.t.c.v.K.E.r Z a.h.a.C.L.yX&XdX:XG M.L.0.m a.a.L. XK.|.n h l.a.a.m.K.d v g.a.M.u.S.B.b F g.B.|.L.XXh v c.a.M.M.P.v.v i.c.i 7 # ",
"l.r.g.n.J.).O E | | V @.5.o...-X-XyXsXP.q.v a.d.K. XK.S.M j c.a.a.S.K.d m !.a.).m.K.N.x b p.A.|.L.P.v v g.c.c.M.P.v.m s.l.0 7 # ",
"f.l.^.S.>XU.H * P #.T 6.6.+ , h G :X;XH.9.n R.g.H. XL.`.M j c.c.g.m.D.d b d.p.M.9.P.).h s.c.B.L.L.I.h M c.c.M.(..Xv.m i.l.i 2 w ",
"m h l.u.<X%X+ O + ;.6.=X5Xo @ m s.W.b.@XY._ g.h.`.#XF.`.v v v.B.K.K.L.d c c g.g.~.A./.v B g.).OXL.XXh h M.l.|.L.L.v.v i.l.i 2 # ",
"M h g.b.K.k.$ { &.7X5X&X*XrX:Xv.v.b.u.P.i.d r.k.h.9.G.A.h j g.N.K.K.P.d c ^.l.l.g.l.N.h A a.f.i.K.P.B k M.a.K.L.L.v.m i.l.i 7 # ",
"M h c.M.|.k.* $.<.aX5X3X4X=X-XqXqXtXhXhXhXgXhXpXxXqXwXqX9XwXpXuXuXjXjXgX9XtXwXwXuXuXhXkXpXwXdX].|.OXj x g.b.L.L.L.v.m i.l.0 2 # ",
"m v c.b.P.a.$ $.1.*.+.4.<.<.>.O.+.L { <.[ J J L *.>.<.<.L [ ;.#.^ ^ J ^ ' <.&.J K / J K $...k g `..Xh v c.l.|.K.L.v.n i.v.8 7 r ",
"h h l.M.K.R.$ [ [ *.1.2.3.[ $...X.! ] X.] W ! ) X.X.X.X.! y X.| ! W l W ! X.| ! ! W W | z h f.(.K..XB v c.a.N.m.P.v.m i.l.a 2 # ",
"m m q.B.G.z.* K K &.-.=.&.! ( A > 7.7.7.> b s b i.d d s.b g s h f A > u n g f c f s F m b B b.|.u.P.v v g.g.c.n.P.v.n s.l.i 7 # ",
"h b a.|.>X$X+ * $ ^ P P ~ z m p.(.[.].K.0.h f.E.oX@X@X/.v h c.c.f.'.K.s v c.a.`.S.|.B.v F c.)..XH.XXZ h l.g.c.M.+Xv.z i.l.0 7 # ",
"M.j.j.M.|.x.O = J P ` I R _ b G yXdX;XS.q.m d.c.h.j.K.S.m h l.a.a.B.K.s v f.v.`.K.K./.b F g.g.j.K..Xj h p.c.b.b.XXv.n i.v.i 7 # ",
"a.g.l.b.P.k.r | !.c.l.f ) ~ U :.;.@.N.D.q.m g.c.a.j.I.S.v h c.a.a.S.K.s v E.l.oXP.K.).b F p.g.b.K.XXb h c.g.b.b.I.v.n i.l.8 7 # ",
"b M d.N.XXk.@ V a.h.g.S.S.k k ~.u.K.OXL.B m a.p.K.`.K.'.m j c.a.a.m.K.s v ~.k.M.K.K.).v F l.B.|.K.|.b v v.a.a.b..Xv.n i.l.i 7 # ",
"c.p.b.D.,X%XH C a.B.B.L.+Xs V ~.h.y.n.K.q.v a.a.K.|.D.|.m h l.(.oXK.K.d m ~.l.b.y.K.(.b F k.m.|.K..Xb h l.g.oXS.K.c.m f.l.i 7 # ",
"g.c.c.m.<X$X% m a.'.K.H.+Xh h g.c.l.^.P.0.n a.a.H. XL.).M b M.B.K.L.K.d k c.h.a.c.S.N.m F k.B.K.L.I.b v c.b.K.L.L.v.n i.l.8 2 w ",
"g.a.c.V.>X%X$ D a.'.K.G.oXh h x.c.l.(.P.q.n a.g.H.@XK.|.M b c.B.K.L.L.d v g.h.c.a.K.N.b F q.A.|.L. Xj m g.l.|.L.L.v.n i.v.a 2 # ",
"c.g.g.K.<X$XH D a.'.K.G.oXh h x.c.b.M.P.q.n g.a.K. XK.`.b A c.B.K.`.C.d v g.a.c.l.K.N.m F r.B.|.L.I.v v c.l.L.L.L.v.m i.k.i 7 # ",
"c.g.j.b.L.k.* M a.'.K.K.+Xh g c.a.e.N.P.q.n a.g.H. XK.'.M b c.B.K.L.C.j v g.a.l.w.K.(.b A k.m.|.K..Xv b g.l.XXK.C.v.m i.l.8 7 # ",
"v b c.M.|.p.% Z a.'.K.G.+Xg h c.b.L.@XK.0.n k.g.D.XXK.'.M b c.B.K.L.D.b v p.g.L.K.P.).b F l.m.|.I.P.d k qXzX XI.A.v.m p.v.i 7 w ",
"M v g.N.I.S % Z w.'.K.H.+Xv g l.b.L. XK.i.n p.a.K.|.K.'.b b c.B.K.L.D.j v c.c.K.P.K./.M F p.S.|.F.L.j m kXkXcXP.I.M.m p.l.8 7 # ",
"M h l.m.,XS.% Z p.S.K.L.+Xv g c.b.L.|.P.q.m p.p.D.|.K.|.m j M.B.K.L.D.b v l.g.K.K.K.).n F l.B.F.L.'.l R 5.5.rXkX;Xc.m i.l.0 2 r ",
"v d a.|.<X].* D a.'.K.D..Xv v c.M.P.P.A.q.n c.c.`.XXD.oXv b c.B.K.L.L.s h c.h.oXP.K.).b A k.M.G.Z.}.~ K 2.6.iXpX:Xv.V d.^.9 6 r ",
"c.b.g.M.I.S * D a.'.|.D.@Xx m x.M.K.|.P.q.n g.g.a.e.K.oXv b M.B.K. X|.d v g.w.oXK.K.).b A a.S _.~ / 3.<.3.1.<.6.iXxX8Xb g.0 6 # ",
"!.l.b.u.>XU.% D p.'.K.D..Xx h c.l.l.M.P.0.b a.c.c.K.G.oXb v c.).XX X.Xd k g.h.h.w.K.N.j M x.y 7 o X L ^ I ^ ^ ^ ^ 4.9X{.c.0 6 # ",
"v s ^./.K.x.# D a.a.K.H.+Xx v x.g.b.(.P.0.b a.a.`.XXP.).b m ~.h.w.n.`.s m E.h.h.a.K.N.b g m E / 3.*.>.1.1.=.<.1.3.&X9XS.l.0 t # ",
"m v g.b.|.k.% D a.).K.D.+Xx x a.h.a.(.P.q.m p.p.t.I.K.[.b b g.N.n.K.F.b v k.c.K.D.K.M.b m v E Y P U 2X7X2.<.eXiX&.4.eXzX}.a 7 # ",
"v h c.M.|.f.% D a.'.K.K.+Xg v c.b..X'.P.q.n l.c.B.I.K.[.b b g.N.C. XD.j v p.g.S.D.S.).n m v E T 5.7X' L =.=.= N pX0X9XhX}.0 7 r ",
"m h c.u.#Xz.% D a.a.K.D.+Xv g c.M.K..XD.0.n f.a.|.K.|.'.F b M.B.|.L.D.j v c.g.K.L.K.N.b m h W T 4X=X%.#.3.3.' } tX0X9XgX{.0 6 r ",
"d A l.m.>X%X@ D a.l.K.D.oXv m c.M.K.P.P.i.c a.a.L.XXK.`.b A c.B.K.L.D.b v c.a.K.K.K.B.m m v E Y 5.7X,.6.-.,.} 4.rXeXeXhX{.a 8 # ",
"c.g.g.m.>X%X% D a.l.K.D..Xv v c.M.|.K.|.i.b d.g.H.@XK.B.M b v.B.K.L.C.b v l.a.K.XXK.).b m v E T { [ 2X=XtXqXwXwXwX5XqXjX@.a t # ",
"g.c.c.m.>X%X% D a.'.K.H..Xx v c.l.M.P..Xi.b a.g.L. XK.|.b b c.B.K.L.D.b v l.p.u.b.K.N.m m m W ` / / &...eXrXqXeX=X4X6X8X(.0 t # ",
"c.g.c.m.>XXX% D g.a.K.D.+Xx v x.c.u.K..Xi.c s.g.H. XK.'.M h M.B.K.L.D.b v a.c.|.K.K.B.m m v e O X % + X r + * H / P = | /.0 9 # ",
"g.a.a.u.S.k.% D a.a.K.H.@Xb h a.b.K.K.K.0.n l.g.K.XXK.|.m j M.B.`.L.K.d m g.a.h.M.K.B.n Z a.8.) R I *.<.6.:.,.O.U E l p.x.u 2 # ",
"A f.c.b..Xk.@ D g.a.K.D.OXb v l.n.D.|.P.0.n k.a.G..XK.'.b v c.B.K.K.K.s m ~.n.b.l.K.N.x F b.h.c.k Q $.%.2.1.%.$. . .k A c.i 7 # ",
"b j c.z.K.G % C a.a.K.F.@Xb g c.M.H.|.D.0.n p.a.D.|.K.K.M A c.B.K.L.|.h v c.XXI.g.K.B.m F w.m.K.9.g y R ;.&.E k P.!.B p.x.u 2 w ",
"c.g.w.y.P.k.@ D a.l.K.F.@Xx f c.z.L. XK.0.n p.g.K.OXK.'.M b c.B.K.K.K.d m ~.u.K.a.K.B.m F h.B.K.P.XXd z ~ R f.e.D.~.h i.~.i 2 # ",
"c.a.l.b.P.S * V a.k.S.L.@Xh b W.u.F.`.L.A m w.a.r.M.L.|.M v c.B.|.L.K.d x g.w.+XL.K.).v F c.l.a.K..XB | Q R f.V.K.v.n p.l.i 7 # ",
"g.g.l.u.<X$X* Z p.'.K.L.oXb c j.z.I.OXL.q.m a.b.S.oXF.K.v A c.B.K.L.K.d m g.t.+X XK.B.v F p.B.|.K.P.h x !.!.oXD.P.v.m i.v.i 7 # ",
"g.b.l.y.D.q.@ Z a.`.L.L..XdXfXdXdX:X(.#X0.n a.a.t.a.L.K.k j c.B.K.L.K.d v c.w.y.e.K.'.h F c.p.g.S..Xh v g.y.K.D.L.v.m i.l.a 7 # ",
"f.c.t.M.D.p.$ R Q Q X.@.5.{ N +X-XrX:XP.0.c w.a.a.h.L.S.b Z c.m.K.|.K.d v f.l.l.e.K.(.v F g.g.M.S.+Xs v c.b.K.L.L.v.m i.c.8 7 # ",
"p.i.t.M.D.f.@ H H [ &.5.5.$   ^.].8X;XD.0.n p.c.k.h.|.'.n h c.N.K.K.D.d b ~.w.b.K.K.N.m F x.a.b.K..Xv v M.a.L.L.L.v.n i.l.8 7 # ",
"v v l.M.G.p.@ O O 4.,.&XxXo . W.a.v.B.F.p.m l.E.b.a.P.'.n b M.B.K.C.K.d b ~.t.@XK.K.S.h M p.b.k.m..Xh v g.l.|.L.L.v.n p.l.0 7 # ",
"M x l.M.G.k.O { ;.7X3X=X=XlXzXy.j.h.V.G.B M h.j.D.XXF.K.c j M.B.L. XL.d c a.b.B.n.K.N.v A k.A.|.P.|.v v g.b.K.L.L.v.n s.c.i 7 # ",
"M n a.(.G.f.H } +.aX6X6X*X=XtX5X3X*X5X9XtXrXrXtXeX=X4X3X4X=X3X3X6XeXiX5X=XiX*X*X7X1.1.*.@.}.].A. XXXB v c.g.g.b.K.v.n i.c.0 7 # ",
"h h l.M.H.l.$ $.<.2.} } <.6.=.=.&.P #.:.#.^ P U 1X1X1X*.Y ^ -.$.U U #.T P 1X-.Y ^ / ` / [ 4.(.P. XXXs v c.g.g.b.|.v.m i.l.i 7 # ",
"f.f.l.M.G.x.+ K Y 1.1.1.2.' ^ X.X.D k z z z k )  .z C C V z D z z z z z z z  .z V ! ) )  .R.(.G.XXXXB v x.g.M.b..Xv.m i.l.0 7 # ",
"S g.9.M.P.x.$ K H %.%.-.%.Q y M 0.i.s.R.M Y.M F R.R.s.M n m m s.F i.s.M m M M T.Y.d.s.g 8.h.).D.K..Xd v g.g.c.M..Xv.n i.l.i 7 # ",
"a.a.^.M.|.k.@ & & L Y R / m _ e.m.].+XP.B z f.c.B.B.D.K.n h k.a.g.B.D.b v v.c.K.XXK.).n A a.B.|.L..Xv M c.l.g.(.P.v.n p.l.i 2 # ",
"b g j.N.D.a.H K ~ ~ ~ ^ ~ z v S fX:X;XS.0.m k.f.w.d.K.|.n h l.a.g.B.D.j v c.c.K.L.K.).m F x.g.a.B..Xv v g.l.j.M.P.v.n i.x.i 2 w ",
"m v c.C.<XXX$ C c.a.p.S.OXR Y 4.@.].+XK.q.m g.l.w.g.|.S.n h b.c.g.K.D.b x l.g.K.L.P.).v F l.c.g.|..XB v c.c.a.g.K.v.m i.l.i 2 # ",
"M v g.B.<XI.$ D a.'.|.P.+Xv z ~.E.b.).P.q.m l.a.K.XXG.D.m j c.B.|.L.K.j v g.g.K.L.K.(.M F a.).|.D.P.d h c.l.|.L.K.v.n i.l.i 7 # ",
"M v b.m.<XU.% D a.'.K.G.+Xh h g.h.a.(.P.q.c a.p.h.a.K.S.n j c.B.K.L.D.v v l.h.K.P.S.'.m A a.l.a.A..Xh v M.a.K.L.L.v.n i.l.0 7 # ",
"v v l.u.,Xm.% C a.'.K.H.+Xg h p.h.h.).P.q.n a.g.e.j. XoXM h v.B.K.L.D.v v l.g.K.L.K.(.v F p.g.a.B.+Xh v c.b.K.L.L.v.m i.l.i 7 r ",
"v h c.b.`.p.H m a.'.K.K.+Xv h g.M.b.).K.0.m k.l.b.M.K.K.M j M.B.K.K.D.j v l.h.K.L.P.'.v F a.a.a.B..Xh v g.b.K.L.L.c.z i.l.0 2 # ",
"V V b.~.F.f.@ Z q.'.K.H.@Xx h c.b.L.XXK.0.n k.a.D.|.K.'.M b g.B.K.XXD.h m a.g.K.L.K.(.v F a.S.|.L.I.j v j.l.K.K.K.v.m i.l.i 7 # ",
"' [ c.M.F.G * Z a.'.K.H.@Xx h c.b.K. XP.0.n p.a.K.|.K.'.n b M.B.K.L.D.j v c.g.C.L.P.(.M A p.m. XL.XXh v M.h.K.K.L.v.n p.l.i 7 # "
};
