/* XPM */
static char *result[] = {
/* columns rows colors chars-per-pixel */
"64 64 25 1 ",
"  c black",
". c #010000",
"X c #010100",
"o c #010101",
"O c #0B0B0B",
"+ c #110C07",
"@ c gray10",
"# c gray16",
"$ c gray19",
"% c #393939",
"& c gray25",
"* c #4B4B4B",
"= c gray31",
"- c #5F5F5F",
"; c #686868",
": c DimGray",
"> c #894512",
", c #8A4612",
"< c #8C4A18",
"1 c #91511F",
"2 c #9A6130",
"3 c #9C6636",
"4 c #A27242",
"5 c #A37343",
"6 c None",
/* pixels */
"6666666666666666666666666666666666666666666666666666666666666666",
"6666666666666666666666666666666666666666666666666666666666666666",
"6666666666666666666666666666666666666666666666666666666666666666",
"6666666666666666666666666666666666666666666666666666666666666666",
"6666666666666666666666666666666666666666666666666666666666666666",
"6666666666666666666666666666666666666666666666666666666666666666",
"66666666666666666666666666666      66666666666666666666666666666",
"66666666666666666666666666  O*$::@-   66666666666666666666666666",
"666666666666666666666666  o:::%%#=:::   666666666666666666666666",
"66666666666666666666666 ::; :::$&::: ::: 66666666666666666666666",
"6666666666666666666666 :::::        ::::: 6666666666666666666666",
"666666666666666666666  :::; +3,,21,  ::: : 666666666666666666666",
"66666666666666666666 :: : X,<3,,21,,5   ::: 66666666666666666666",
"66666666666666666666 :::.4,,<3,,21,,5,, ::: 66666666666666666666",
"6666666666666666666 ::: ,4,,<3,,21,,5,,, ::  6666666666666666666",
"6666666666666666666 ::: ,4,,<3,,21,,5,,, : : 6666666666666666666",
"6666666666666666666  : ,,4,,<3,,21,,5,,,5 :: 6666666666666666666",
"666666666666666666 ::  ,,4,,<3,,21,,5,,,5 ::: 666666666666666666",
"666666666666666666 :: ,,,4,,<3,,21,,5,,,5, :: 666666666666666666",
"666666666666666666 :: ,,,4,,<3,,21,,5,,,5, :: 666666666666666666",
"666666666666666666 :: ,,,4,,<3,,21,,5,,,5, :: 666666666666666666",
"666666666666666666    ,,,4,,<3,,21,,5,,,5,    666666666666666666",
"666666666666666666 :: ,,,4,,<3,,21,,5,,,5, :: 666666666666666666",
"666666666666666666 :: ,,,4,,<3,,21,,5,,,5, :: 666666666666666666",
"666666666666666666 :: ,,,4,,<3,,21,,5,,,5, :: 666666666666666666",
"666666666666666666 :: ,,,4,,<3,,21,,5,     :: 666666666666666666",
"666666666666666666    ,,,4,,<3,,21,,5, 6 6    666666666666666666",
"666666666666666666 :: ,,,4,,<3,,21,,5,     :: 666666666666666666",
"666666666666666666 :: ,,,4,,<3,,21,,5,,,5, :: 666666666666666666",
"666666666666666666 :: ,,,4,,<3,,21,,5,,,5, :: 666666666666666666",
"666666666666666666 :: ,,,4,,<3,,21,,5,,,5, :: 666666666666666666",
"666666666666666666    ,,,4,,<3,,21,,5,,,5,    666666666666666666",
"666666666666666666 :: ,,,4,,<3,,21,,5,,,5, :: 666666666666666666",
"666666666666666666 :: ,,    <3,,21,,5,,,5, :: 666666666666666666",
"666666666666666666 :: ,,, X,<3,,21,,5,,,5, :: 666666666666666666",
"666666666666666666 :: ,,.4> <3,,21,,5,,,5, :: 666666666666666666",
"666666666666666666    ,,.4> <3,,21,,5,,,5,    666666666666666666",
"666666666666666666 :: ,,, X,<3,,21,,5,,,5, :: 666666666666666666",
"666666666666666666 :: ,,,4,,<3,,21,,5,,,5, :: 666666666666666666",
"666666666666666666 :: ,,,4,,<3,,21,,5,,,5, :: 666666666666666666",
"666666666666666666 :: ,,,4,,<3,,21,,5,,,5, :: 666666666666666666",
"666666666666666666    ,,,4,,<3,,21,,5,,,5,    666666666666666666",
"666666666666666666 :: ,,,4,,<3,,21,,5,,,5, :: 666666666666666666",
"666666666666666666 :: ,,,4,,<3,,21,,5,,,5, :: 666666666666666666",
"666666666666666666 :: ,,,4,,<3,,21,,5,,,5, :: 666666666666666666",
"666666666666666666 :: ,,,4,,<3,,21,,5,,,5, :: 666666666666666666",
"666666666666666666    ,,,4,,<3,,21,,5,,,5,    666666666666666666",
"666666666666666666 :: ,,,4,,<3,,21,,5,     :: 666666666666666666",
"666666666666666666 :: ,,,4,,<3,,21,,5, 6 6 :: 666666666666666666",
"666666666666666666 :: ,,,4,,<3,,21,,5,     :: 666666666666666666",
"666666666666666666 :: ,,,4,,<3,,21,,5,,,5, :: 666666666666666666",
"666666666666666666    ,,,4,,<3,,21,,5,,,5,    666666666666666666",
"666666666666666666 :: ,,,4,,<3,,21,,5,,,5, :: 666666666666666666",
"666666666666666666 :: ,,,4,,<3,,21,,5,,,5, :: 666666666666666666",
"666666666666666666 :: ,,,4,,<3,,21,,5,,,5, :: 666666666666666666",
"666666666666666666 :: ,,,4,,<3,,21,,5,,,5, :: 666666666666666666",
"666666666666666666                            666666666666666666",
"6666666666666666666666666666666666666666666666666666666666666666",
"6666666666666666666666666666666666666666666666666666666666666666",
"6666666666666666666666666666666666666666666666666666666666666666",
"6666666666666666666666666666666666666666666666666666666666666666",
"6666666666666666666666666666666666666666666666666666666666666666",
"6666666666666666666666666666666666666666666666666666666666666666",
"6666666666666666666666666666666666666666666666666666666666666666"
};
