/* XPM */
static char *result[] = {
/* columns rows colors chars-per-pixel */
"64 64 215 2 ",
"   c #15140B",
".  c #1A160D",
"X  c #1B190E",
"o  c #1C1C11",
"O  c #23190F",
"+  c #231C11",
"@  c #2B1B11",
"#  c #301F14",
"$  c #1D220D",
"%  c #1F2112",
"&  c #232314",
"*  c #2B2316",
"=  c #252A13",
"-  c #2B2817",
";  c #25241B",
":  c #2C261B",
">  c #2C2C1A",
",  c #332316",
"<  c #35251A",
"1  c #342B1A",
"2  c #3A2A1B",
"3  c #2C3514",
"4  c #2C3515",
"5  c #33351D",
"6  c #3C321D",
"7  c #353B1D",
"8  c #343D16",
"9  c #20270E",
"0  c #2B2B22",
"q  c #262620",
"w  c #392920",
"e  c #332B22",
"r  c #2E3123",
"t  c #333525",
"y  c #3C3424",
"u  c #3E3921",
"i  c #34342D",
"p  c #39342B",
"a  c #383A2B",
"s  c #3B3B33",
"d  c #412E1E",
"f  c #41311E",
"g  c #433522",
"h  c #453A22",
"j  c #4B3C24",
"k  c #443B2C",
"l  c #4A3C29",
"z  c #46362A",
"x  c #533D2B",
"c  c #523C27",
"v  c #463E36",
"b  c #3E4C1B",
"n  c #384618",
"m  c #3E5216",
"M  c #3F501B",
"N  c #3C4522",
"B  c #3E4A24",
"V  c #465A1A",
"C  c #73571B",
"Z  c #4C651B",
"A  c #4F6B1A",
"S  c #526E1C",
"D  c #5B7C1D",
"F  c #57751C",
"G  c #424624",
"H  c #4F4025",
"J  c #4D422A",
"K  c #484727",
"L  c #514227",
"P  c #54442B",
"I  c #58462D",
"U  c #5A4A2E",
"Y  c #534A28",
"T  c #4C5B22",
"R  c #4B5329",
"E  c #485425",
"W  c #525C2C",
"Q  c #535726",
"!  c #44443D",
"~  c #4C463B",
"^  c #444134",
"/  c #544632",
"(  c #594734",
")  c #5C4B33",
"_  c #544939",
"`  c #5A4A35",
"'  c #694F2B",
"]  c #745924",
"[  c #624D35",
"{  c #634F38",
"}  c #665235",
"|  c #65533A",
" . c #6A563C",
".. c #6E593E",
"X. c #6B5537",
"o. c #715A3D",
"O. c #795C3C",
"+. c #6F5029",
"@. c #546C21",
"#. c #54642C",
"$. c #586828",
"%. c #597323",
"&. c #5D7B21",
"*. c #5B7327",
"=. c #5A6632",
"-. c #627C24",
";. c #657A2B",
":. c #646631",
">. c #786939",
",. c #687D3A",
"<. c #454540",
"1. c #4B4B44",
"2. c #4D4C47",
"3. c #564D44",
"4. c #55544D",
"5. c #5D524C",
"6. c #5F594E",
"7. c #565650",
"8. c #5B5B56",
"9. c #5A5955",
"0. c #6F5C42",
"q. c #745D42",
"w. c #7A5F42",
"e. c #655A54",
"r. c #7C6245",
"t. c #7B6547",
"y. c #66635B",
"u. c #6A7651",
"i. c #6D6D68",
"p. c #A07D33",
"a. c #83674A",
"s. c #856A4B",
"d. c #8A6C4D",
"f. c #836744",
"g. c #91734E",
"h. c #8D6F50",
"j. c #947452",
"k. c #987756",
"l. c #9B7A54",
"z. c #9E7A58",
"x. c #8F704E",
"c. c #A27E56",
"v. c #668A1E",
"b. c #658A1E",
"n. c #6B941E",
"m. c #6D981F",
"M. c #70981F",
"N. c #648522",
"B. c #668922",
"V. c #6A8D24",
"C. c #6D8B2B",
"Z. c #69832A",
"A. c #728A2B",
"S. c #6C9321",
"D. c #6D9820",
"F. c #739D23",
"G. c #739525",
"H. c #799937",
"J. c #75A322",
"K. c #7CAB24",
"L. c #7BA62A",
"P. c #7FB024",
"I. c #938737",
"U. c #A78737",
"Y. c #B48B2C",
"T. c #81A828",
"R. c #97AC26",
"E. c #82B425",
"W. c #85BA26",
"Q. c #89BF27",
"!. c #82B22A",
"~. c #87B92D",
"^. c #8AB735",
"/. c #91B23B",
"(. c #AFB634",
"). c #C6A63E",
"_. c #CFB833",
"`. c #8AC027",
"'. c #8CC12B",
"]. c #9ACE3C",
"[. c #95C634",
"{. c #93C22B",
"}. c #A9845B",
"|. c #AE885C",
" X c #A48158",
".X c #B28A5F",
"XX c #88A847",
"oX c #98BA4D",
"OX c #97B852",
"+X c #91B34A",
"@X c #ACBA45",
"#X c #A8BB54",
"$X c #BA9161",
"%X c #B68E60",
"&X c #C19765",
"*X c #9AC745",
"=X c #9FD141",
"-X c #A2D446",
";X c #A6D84A",
":X c #A7D84D",
">X c #ACDE53",
",X c #AEDA5C",
"<X c #A9D458",
"1X c #A1C658",
"2X c #B4E55C",
"3X c #B5E65B",
"4X c #B2DC60",
"5X c #BBEB63",
"6X c #B6E560",
"7X c #CBD342",
"8X c #DADD47",
"9X c #C8C943",
"0X c #C1F169",
"qX c #C0EF68",
"wX c None",
/* pixels */
"wXwXwXwXwXwXwXwXwXwXwXwXwXwXwXwXwXwXwXwXwXwXwXwXwXwXwXwXwXwXwXwXwXwXwXwXwXwXwXwXwXwXwXwXwXwXwXwXwXwXwXwXwXwXwXwXwXwXwXwXwXwXwXwX",
"wXwXwXwXwXwXwXwXwXwXwXwXwXwXwXwXwXwXwXwXwXwXwXwXwXwXwXwXwXwXwXwXwXwXwXwXwXwXwXwXwXwXwXwXwXwXwXwXwXwXwXwXwXwXwXwXwXwXwXwXwXwXwXwX",
"wXwXwXwXwXwXwXwXwXwXwXwXwXwXwXwXwXwXwXwXwXwXwXwXwXwXwXwXwXwXwXwXi . . q wXwXwXwXwXwXwXwXwXwXwXwXwXwXwXwXwXwXwXwXwXwXwXwXwXwXwXwX",
"wXwXwXwXwXwXwXwXwXwXwXwXwXwXwXwXwXwXwXwXwXwXwXwXwXwXwXwXwXwXwXw # q q q ; wXwXwXwXwXwXwXwXwXwXwXwXwXwXwXwXwXwXwXwXwXwXwXwXwXwXwX",
"wXwXwXwXwXwXwXwXwXwXwXwXwXwXwXwXwXwXwXwXwXwXwXwXwXwXwXwXwX5.@ @ < wXwXwX5.wXwXwXwXwXwXwXwXwXwXwXwXwXwXwXwXwXwXwXwXwXwXwXwXwXwXwX",
"wXwXwXwXwXwXwXwXwXwXwXwXwXwXwXwXwXwXwXwXwXwXwXwXwXwXwXwXwX3.@ z wXwXwXwXe.wXwXwXwXwXwXwXwXwXwXwXwXwXwXwXwXwXwXwXwXwXwXwXwXwXwXwX",
"wXwXwXwXwXwXwXwXwXwXwXwXwXwXwXwXwXwXwXwXwXwXwXwXwXwXwXwXwX3.@ z wXwXwXwX5.wXwXwXwXwXwXwXwXwXwXwXwXwXwXwXwXwXwXwXwXwXwXwXwXwXwXwX",
"wXwXwXwXwXwXwXwXwXwXwXwXwXwXwXwXwXwXwXwXwXwXwXwXwXwXwXwXwX1.  i wXwXwXz < wXwXwXwXwXwXwXwXwXwXwXwXwXwXwXwXwXwXwXwXwXwXwXwXwXwXwX",
"wXwXwXwXwXwXwXwXwXwXwXwXwXwXwXwXwXwXwXwXwXwXwXwXwXwXwXN N %   % s s i w wXwXwXe.wXwXwXwXwXwXwXwXwXwXwXwXwXwXwXwXwXwXwXwXwXwXwXwX",
"wXwXwXwXwXwXwXwXwXwXwXwXwXwXwXwXwXwXwXwXwXwXwXwX! s i 8 @.S.F.S.D b : @ p ^ v < wXwXwXwXwXwXwXwXwXwXwXwXwXwXwXwXwXwXwXwXwXwXwXwX",
"wXwXwXwXwXwXwXwXwXwXwXwXwXwXwXwXwXwXwXwXwXwXwXN ; y T B.P.<X3X>X~.S.@.h 1 X . X wXwXwXwXwXwXwXwXwXwXwXwXwXwXwXwXwXwXwXwXwXwXwXwX",
"wXwXwXwXwXwXwXwXwXwXwXwXwXwXwXwXwXwXwXwXwXwX8.8 @.J Z.P.'.2X0X6X[.E.G.Y $.n q wXwXwXwXwXwXwXwXwXwXwXwXwXwXwXwXwXwXwXwXwXwXwXwXwX",
"wXwXwXwXwXwXwXwXwXwXwXwXwXwXwXwXwXwXwXwXwX8.a G v.-.F.`.`.].=X].'.`.K.-.v.V 0 2.wXwXwXwXwXwXwXwXwXwXwXwXwXwXwXwXwXwXwXwXwXwXwXwX",
"wXwXwXwXwXwXwXwXwXwXwXwXwXi.i.i.wXwXwXwX4.o 7 -.K.n.M.K.Q.`.`.`.Q.P.F.n.J.Z.n X 2.wXwXwXwXwXwXwXwXwXwXwXwXwXwXwXwXwXwXwXwXwXwXwX",
"wXwXwXwXwXwXwXwXwXwXwXwXwX= Z S S S V 8 o . 7 ;.Q.K.K.E.`.`.`.`.Q.E.K.K.W.A.K X o 4 V S S S S 4 1.wXwXwXwXwXwXwXwXwXwXwXwXwXwXwX",
"wXwXwXwXwXwXwXwXwXwXwXwXwXu.$.S @.&.F.B.S V H ;.'.-X;X].'.`.`.`.`.].;X-X[.A.H m Z N.F.N.%.A S u.wXwXwXwXwXwXwXwXwXwXwXwXwXwXwXwX",
"wXwXwXwXwXwXwXwXwXwXwXwXwXwXwXwX4.> Z &.B.J.;.-.E.-X3X5X-X~.K.!.-X3X3X;X~.V.*.F.V.-.F 4 1.wXwXwXwXwXwXwXwXwXwXwXwXwXwXwXwXwXwXwX",
"wXwXwXwXwXwXwXwXwXwXwXwXwXwXwXwXwXwXwX^ 7 &.-.N.M.R.@X#XoX+XH.C.+X#X@X(.F.B.;.N.b a wXwXwXwXwXwXwXwXwXwXwXwXwXwXwXwXwXwXwXwXwXwX",
"wXwXwXwXwXwXwXwXwXwXwXwXwXwXwXwXwXwXwXwX2.> K ;.T._.).U.>.oXXX=.:.p.)._.R.Z.R > ! wXwXwXwXwXwXwXwXwXwXwXwXwXwXwXwXwXwXwXwXwXwXwX",
"wXwXwXwXwXwXwXwXwXwXwXwXwXwXwXwXwXwXwXwXwX> t Z.'.7X8X9XI.[.T.:.p.@X8X7X[.A.N o wXwXwXwXwXwXwXwXwXwXwXwXwXwXwXwXwXwXwXwXwXwXwXwX",
"wXwXwXwXwXwXwXwXwXwXwXwXwXwXwXwXwXwXwXwXwX7.i T L.D.J.P.~.,XOX;.J.E.K.m.J.*.> <.wXwXwXwXwXwXwXwXwXwXwXwXwXwXwXwXwXwXwXwXwXwXwXwX",
"wXwXwXwXwXwXwXwXwXwXwXwXwXwXwXwXwXwXwXwXwXwX9.= E %.b.B.V.*X*XS.B.B.b.D T 5 0 wXwXwXwXwXwXwXwXwXwXwXwXwXwXwXwXwXwXwXwXwXwXwXwXwX",
"wXwXwXwXwXwXwXwXwXwXwXwXwXwXwXwXwXwXwXwXwXwXwX  % = V N.#.G.F.&.#.*.@.4 &     X o 5.wXwXwXwXwXwXwXwXwXwXwXwXwXwXwXwXwXwXwXwXwXwX",
"wXwXwXwXwXwXwXwXwXwXwXwXwXwXwXwXwXwXwXwXwXwX2.4 E % t W =.W R R =.#.B o G 7 X l  . .l e wXwXwXwXwXwXwXwXwXwXwXwXwXwXwXwXwXwXwXwX",
"wXwXwXwXwXwXwXwXwXwXwXwXwXwXwXwXwXwXwXwX& + o > R % & E !.<X2X,X^.@.= o N t - s.|.$X%Xs.( w ; wXwXwXwXwXwXwXwXwXwXwXwXwXwXwXwXwX",
"wXwXwXwXwXwXwXwXwXwXwXwXwXwXwXwXwX: < ( | L < * > > o = W L.Q.!.*.5 o ; > & * d..X&X&X$X}.r.: wXwXwXwXwXwXwXwXwXwXwXwXwXwXwXwXwX",
"wXwXwXwXwXwXwXwXwXwXwXwXwXwXwXwX_ r.z.%X|.j.[ 1 X .   o 4 D n.b.n o   .   + <  .x.}..Xo.U P H y 9.wXwXwXwXwXwXwXwXwXwXwXwXwXwXwX",
"wXwXwXwXwXwXwXwXwXwXwXwXwXwXv 0.z.$X$X&X$Xz.X.j h @ .   X A n.D =   . @ f j j L | [ 2 1 y L Q K y s wXwXwXwXwXwXwXwXwXwXwXwXwXwX",
"wXwXwXwXwXwXwXwXwXwXwXwXwXwX0 g U X.|..Xl.r.) H H h -     $ 9 $     O h H H H H d , X 6 Y #.N.b.V r wXwXwXwXwXwXwXwXwXwXwXwXwXwX",
"wXwXwXwXwXwXwXwXwXwXwXwXwXs o = f L J | ..P L H H H j f 6 O   . 6 f h j H H P | g O   - V V.K.F.A r wXwXwXwXwXwXwXwXwXwXwXwXwXwX",
"wXwXwXwXwXwXwXwXwXwXwXwXwXo y K W R 5 2 g j H H H L L j H 1 O * h J H L j ( ..h.x +   . M n.W.W.V.h ^ wXwXwXwXwXwXwXwXwXwXwXwXwX",
"wXwXwXwXwXwXwXwXwXwXwXwXwX+ H Z.C.W t * d r.o.) L j j L H f f L r.o.|  .r.d.s.x * wXwXi m m.W.'.K.%.= wXwXwXwXwXwXwXwXwXwXwXwXwX",
"wXwXwXwXwXwXwXwXwXwXwXwXwX3 A.*X*XC.4 o @ x >.d.t.| } ..O.j 2 d [ r.j. X|.g.U - wXwXwXwXwXZ K.`.P.N.= wXwXwXwXwXwXwXwXwXwXwXwXwX",
"wXwXwXwXwXwXwXwXwXwXwXwXwXb *X3X:XS.3 wXwX2 I d..X Xj.a.o.c d j o.f.s.x.f.| h X wXwXwXwXwXb K.`.Q.F.4 wXwXwXwXwXwXwXwXwXwXwXwXwX",
"wXwXwXwXwXwXwXwXwXwXwXwX3.W ,X>X/.Q = wXwXe , I f.g.d.q.c f d d X.o.0.0.U f < . wXwXwXwXwXE K.Q.W.M.3 wXwXwXwXwXwXwXwXwXwXwXwXwX",
"wXwXwXwXwXwXwXwXwXwXwXp 7 Z.*X~.&.y wXwXwXq O , 6 J U U L < # , h U ) ) P f O . wXwXwXwXu.@.E.]./.@.= wXwXwXwXwXwXwXwXwXwXwXwXwX",
"wXwXwXwXwXwXwXwXwXwXwXi m m.W.K.S > wXwXwX; < < @ * y `  .] C ] o.{ J f f < @   wXwXwXu.H.*X=X2X+Xk y.wXwXwXwXwXwXwXwXwXwXwXwXwX",
"wXwXwXwXwXwXwXwXwXwXwXs m m.Q.`.N.t wXwX. < f j 2 2 p ~ o.p.Y.p.>._ a - * , , O wXwX% ,.1X0X5X2XH.i wXwXwXwXwXwXwXwXwXwXwXwXwXwX",
"wXwXwXwXwXwXwXwXwXwXwXi m F.].[.Z.N wXwX- [ I L H H J J / ' +.' ) h 6 , 2 f f f +     n H.<X>X[.D r wXwXwXwXwXwXwXwXwXwXwXwXwXwX",
"wXwXwXwXwXwXwXwXwXwXwXi n H.4X>XZ.0 wXwX* r.o.U H I  .d.c.x @ 2 s.o.H H H L L L &   X Z C.P.Q.B.#.wXwXwXwXwXwXwXwXwXwXwXwXwXwXwX",
"wXwXwXwXwXwXwXwXwXwXwXwXv =.4X5XXXr wXwX% y q.w.} t.k.}.c.c @ d x.w.P L L j L [ 1 ; i k V F V.=.wXwXwXwXwXwXwXwXwXwXwXwXwXwXwXwX",
"wXwXwXwXwXwXwXwXwXwXwXwXwXb 4X0XOXW B >   X 1 [ h.}..Xl.{ 2 @ d j.j...I L P } a.h wXwXwX! <.wXwXwXwXwXwXwXwXwXwXwXwXwXwXwXwXwXwX",
"wXwXwXwXwXwXwXwXwXwXwXwXwXn <X5X5X5X,X=.. @ @ 2 l ` | J @ @ @ * ) d.k.t.} o.a.c & 7.wXwXwXwXwXwXwXwXwXwXwXwXwXwXwXwXwXwXwXwXwXwX",
"wXwXwXwXwXwXwXwXwXwXwXwXwX8 L.:X5X,XW % . O @ @ @     . 0 o     @ O.$X.Xc.O.f X   7.wXwXwXwXwXwXwXwXwXwXwXwXwXwXwXwXwXwXwXwXwXwX",
"wXwXwXwXwXwXwXwXwXwXwXwXwXN N.K.Q.!.V.n   X O @ # 2 O ! wXwX0 0 0 /  . .I 2 # @ X 4.wXwXwXwXwXwXwXwXwXwXwXwXwXwXwXwXwXwXwXwXwXwX",
"wXwXwXwXwXwXwXwXwXwXwXwXwXwXt N.K.b.Q - O h * - I h.x <.wXwXwXwXwXwX    @ @ @ @ . 7.wXwXwXwXwXwXwXwXwXwXwXwXwXwXwXwXwXwXwXwXwXwX",
"wXwXwXwXwXwXwXwXwXwXwXwXwXwXwXwX> > ; o 6 c.|.c.d.q.y <.wXwXwXwXwXwX. + @ @ @ @ . 4.wXwXwXwXwXwXwXwXwXwXwXwXwXwXwXwXwXwXwXwXwXwX",
"wXwXwXwXwXwXwXwXwXwXwXwXwXwXwXwXwXwXwXwX; ..r.[ 2 < + <.wXwXwXwXwXwX. @ @ @ @ @ X 4.wXwXwXwXwXwXwXwXwXwXwXwXwXwXwXwXwXwXwXwXwXwX",
"wXwXwXwXwXwXwXwXwXwXwXwXwXwXwXwXwXwXwXwX. < < , @ .   ! wXwXwXwXwXwX    O @ @ . 1 y s wXwXwXwXwXwXwXwXwXwXwXwXwXwXwXwXwXwXwXwXwX",
"wXwXwXwXwXwXwXwXwXwXwXwXwXwXwXwXwXwXwX_ ) ) ) | ( * . <.wXwXwXwXwXwX< q.I 1 + f ..| : wXwXwXwXwXwXwXwXwXwXwXwXwXwXwXwXwXwXwXwXwX",
"wXwXwXwXwXwXwXwXwXwXwXwXwXwXwXwXwX<.k ` q.0.0.0. .< X v wXwXwXwXwXwX1 q.s.x.j.c.r.h ; wXwXwXwXwXwXwXwXwXwXwXwXwXwXwXwXwXwXwXwXwX",
"wXwXwXwXwXwXwXwXwXwXwXwXwXwXwXwXwX; P ..0.0.0.0.| * wXwXwXwXwXwXwXwX+ d g { d.s.l 3.wXwXwXwXwXwXwXwXwXwXwXwXwXwXwXwXwXwXwXwXwXwX",
"wXwXwXwXwXwXwXwXwXwXwXwXwXwXwXwXwX; ) 0.0.0.q.| P o wXwXwXwXwXwXwXwXwX; + < g d & 9.wXwXwXwXwXwXwXwXwXwXwXwXwXwXwXwXwXwXwXwXwXwX",
"wXwXwXwXwXwXwXwXwXwXwXwXwXwXwXwXwX; [ 0.0.0.0./ p wXwXwXwXwXwXwXwXwX<.o 1 l P / h ^ wXwXwXwXwXwXwXwXwXwXwXwXwXwXwXwXwXwXwXwXwXwX",
"wXwXwXwXwXwXwXwXwXwXwXwXwXwXwXwXwXwX~ y y y y 6.wXwXwXwXwXwXwXwXwXwX  + P | 0.t.| l ; wXwXwXwXwXwXwXwXwXwXwXwXwXwXwXwXwXwXwXwXwX",
"wXwXwXwXwXwXwXwXwXwXwXwXwXwXwXwXwXwXwXwXwXwXwXwXwXwXwXwXwXwXwXwXwXwX. # ) t.j.l.t.( y y.wXwXwXwXwXwXwXwXwXwXwXwXwXwXwXwXwXwXwXwX",
"wXwXwXwXwXwXwXwXwXwXwXwXwXwXwXwXwXwXwXwXwXwXwXwXwXwXwXwXwXwXwXwXwXwX  + g [ w.O.[ j 2 + wXwXwXwXwXwXwXwXwXwXwXwXwXwXwXwXwXwXwXwX",
"wXwXwXwXwXwXwXwXwXwXwXwXwXwXwXwXwXwXwXwXwXwXwXwXwXwXwXwXwXwXwXwXwXwX2.o O @ @ @ @ + @ 4.wXwXwXwXwXwXwXwXwXwXwXwXwXwXwXwXwXwXwXwX",
"wXwXwXwXwXwXwXwXwXwXwXwXwXwXwXwXwXwXwXwXwXwXwXwXwXwXwXwXwXwXwXwXwXwXwXwXw O O O O p wXwXwXwXwXwXwXwXwXwXwXwXwXwXwXwXwXwXwXwXwXwX",
"wXwXwXwXwXwXwXwXwXwXwXwXwXwXwXwXwXwXwXwXwXwXwXwXwXwXwXwXwXwXwXwXwXwXwXwXwX8.8.8.8.wXwXwXwXwXwXwXwXwXwXwXwXwXwXwXwXwXwXwXwXwXwXwX",
"wXwXwXwXwXwXwXwXwXwXwXwXwXwXwXwXwXwXwXwXwXwXwXwXwXwXwXwXwXwXwXwXwXwXwXwXwXwXwXwXwXwXwXwXwXwXwXwXwXwXwXwXwXwXwXwXwXwXwXwXwXwXwXwX",
"wXwXwXwXwXwXwXwXwXwXwXwXwXwXwXwXwXwXwXwXwXwXwXwXwXwXwXwXwXwXwXwXwXwXwXwXwXwXwXwXwXwXwXwXwXwXwXwXwXwXwXwXwXwXwXwXwXwXwXwXwXwXwXwX",
"wXwXwXwXwXwXwXwXwXwXwXwXwXwXwXwXwXwXwXwXwXwXwXwXwXwXwXwXwXwXwXwXwXwXwXwXwXwXwXwXwXwXwXwXwXwXwXwXwXwXwXwXwXwXwXwXwXwXwXwXwXwXwXwX",
"wXwXwXwXwXwXwXwXwXwXwXwXwXwXwXwXwXwXwXwXwXwXwXwXwXwXwXwXwXwXwXwXwXwXwXwXwXwXwXwXwXwXwXwXwXwXwXwXwXwXwXwXwXwXwXwXwXwXwXwXwXwXwXwX"
};
