/* XPM */
static char *_c62a3a5626c4407c4277bd1d7e595c6kNP70P1MfSXry8Jl[] = {
/* columns rows colors chars-per-pixel */
"64 64 212 2 ",
"   c None",
".  c #14130B",
"X  c #1A160D",
"o  c #1B1A0E",
"O  c #1D1B11",
"+  c #23190F",
"@  c #21170E",
"#  c #231D11",
"$  c #2B1C12",
"%  c #301F13",
"&  c #1F2210",
"*  c #232B0F",
"=  c #252314",
"-  c #2A2315",
";  c #262A14",
":  c #292A16",
">  c #25241D",
",  c #2D2619",
"<  c #2C2C1A",
"1  c #322215",
"2  c #33271A",
"3  c #332A1A",
"4  c #3A2C1B",
"5  c #382918",
"6  c #2A3513",
"7  c #2D3A13",
"8  c #293014",
"9  c #32321A",
"0  c #3B311D",
"q  c #363C1A",
"w  c #3B3B1D",
"e  c #303D14",
"r  c #272720",
"t  c #2B2A23",
"y  c #3C3423",
"u  c #393A21",
"i  c #34332C",
"p  c #37362B",
"a  c #373630",
"s  c #3A3A33",
"d  c #3E3E38",
"f  c #3A3731",
"g  c #312E23",
"h  c #42331E",
"j  c #433D1A",
"k  c #433623",
"l  c #443923",
"z  c #4B3C24",
"x  c #4C3D29",
"c  c #463B2A",
"v  c #344414",
"b  c #394619",
"n  c #3D5116",
"m  c #3B4421",
"M  c #46581A",
"N  c #44491C",
"B  c #4C641B",
"V  c #4F6B19",
"C  c #526E1B",
"Z  c #55731C",
"A  c #5A7B1C",
"S  c #58761E",
"D  c #424525",
"F  c #4F4025",
"G  c #444B23",
"H  c #4B472B",
"J  c #53432A",
"K  c #59492E",
"L  c #564529",
"P  c #435223",
"I  c #4A5825",
"U  c #545325",
"Y  c #545B2B",
"T  c #58582C",
"R  c #44443D",
"E  c #484739",
"W  c #544430",
"Q  c #584631",
"!  c #5C4B34",
"~  c #554A39",
"^  c #55583F",
"/  c #604D36",
"(  c #654F39",
")  c #665136",
"_  c #66543A",
"`  c #6B563D",
"'  c #6E5A3C",
"]  c #715628",
"[  c #5B6525",
"{  c #54662C",
"}  c #5C632C",
"|  c #5C6D2C",
" . c #566924",
".. c #5C7225",
"X. c #5D732A",
"o. c #5F7821",
"O. c #626F2A",
"+. c #627C24",
"@. c #60742F",
"#. c #637B2C",
"$. c #647626",
"%. c #76683A",
"&. c #6A7136",
"*. c #4B4B44",
"=. c #4F4F4A",
"-. c #494741",
";. c #524C44",
":. c #53534C",
">. c #575747",
",. c #565650",
"<. c #5B5A53",
"1. c #5D5A55",
"2. c #6E5A40",
"3. c #735C42",
"4. c #7A5F45",
"5. c #7A6145",
"6. c #7B6348",
"7. c #64645B",
"8. c #637145",
"9. c #6A6A65",
"0. c #6C6C67",
"q. c #7C7C78",
"w. c #71716E",
"e. c #85642D",
"r. c #987535",
"t. c #93792A",
"y. c #A37C28",
"u. c #826649",
"i. c #866A4C",
"p. c #8A6D4C",
"a. c #93724C",
"s. c #8E6E50",
"d. c #937353",
"f. c #997657",
"g. c #9D7958",
"h. c #A27D5A",
"j. c #5F801F",
"k. c #62841E",
"l. c #678F1E",
"z. c #6B941E",
"x. c #709A1F",
"c. c #628222",
"v. c #668A21",
"b. c #6B8E24",
"n. c #658328",
"m. c #6D8B2B",
"M. c #77892B",
"N. c #6D9521",
"B. c #6E9526",
"V. c #729D22",
"C. c #799B28",
"Z. c #739729",
"A. c #6F8B31",
"S. c #749632",
"D. c #76A322",
"F. c #7AA525",
"G. c #7DAD24",
"H. c #7CA42B",
"J. c #7DA928",
"K. c #76A02A",
"L. c #7FB025",
"P. c #789442",
"I. c #829D27",
"U. c #B58D23",
"Y. c #B2943B",
"T. c #81AC29",
"R. c #82B425",
"E. c #86BA26",
"W. c #89BF27",
"Q. c #8ABD29",
"!. c #82B329",
"~. c #81A834",
"^. c #8BB837",
"/. c #AFA426",
"(. c #C9A42C",
"). c #8AC027",
"_. c #8DC22C",
"`. c #94C52C",
"'. c #8FC134",
"]. c #95C935",
"[. c #96C93C",
"{. c #9BCE3B",
"}. c #96C536",
"|. c #A1CA33",
" X c #AC865D",
".X c #AF8A5D",
"XX c #B28B5E",
"oX c #88A447",
"OX c #94BF45",
"+X c #93B452",
"@X c #BD9363",
"#X c #B78E61",
"$X c #C29765",
"%X c #9CC549",
"&X c #9EC355",
"*X c #9ED140",
"=X c #A4D44C",
"-X c #A6D94A",
";X c #A1D546",
":X c #A4C957",
">X c #ACDC53",
",X c #A9D755",
"<X c #B4D65F",
"1X c #AFCE4D",
"2X c #B4E45D",
"3X c #B3E358",
"4X c #B4DC61",
"5X c #BCEC63",
"6X c #D2DE46",
"7X c #E1D54C",
"8X c #F5EB50",
"9X c #C1F169",
/* pixels */
"                                                                                                                                ",
"                                                                                                                                ",
"                                                                                                                                ",
"                                                                                                                                ",
"                                                              a . . o o o o o . ,.                                              ",
"                                                          -.O . O > r r r r r r r r =.                                          ",
"                                                      f X . . . :.                R . o *.                                      ",
"                                                      i . . -.                        s *.                                      ",
"                                                      i . . & g                       R *.                                      ",
"                                                          a . . ,.                    R *.                                      ",
"                                              w.:.:.,.,.d > . . t *.,.,.              R -.                                      ",
"                                          0.>.D P B Z j.k.j.A V B B M u x >.          d t -.          w.q.                      ",
"                                        >.c G ..S.OX=X,X;X`.E.L.D.z.o.U k 0 E 7.        0.t i ,.9.0.q.                          ",
"                                      t : D X.Z.[.2X9X5X3X].).).J.n.....[ U H G >.7.                                            ",
"                                    <.g q  .B.!.].-X=X-X{.'.E.G.Z.n.+.l.v.+.X.{ G 9 :.                                          ",
"                                  i & 4 I c.V.D.L.W.).).).).R.F.D.D.V.z.v.+.| Y D 9 m                                           ",
"                                9.i 7 I ..k.z.l.D.E.Q.Q.).).W.).!.H.Z.+.$...X.|  .n n v 7 v 6 & *.                              ",
"                              d = b V j.N.V.F.~.^.|.]._.E.R.G.J.A.| T } $.N.D.G.L.L.x.j.V V { >.                                ",
"                              m b m.K.N.D.'.-X5X9X2X;X^.F.N.n.#.@.@.m.!.E.R.D.N.k.S { E d d w.                                  ",
"                              <.8.+XoXc.S.&X<X<X1X^.I.$.#.N.D.G.R.E.R.T.Z.k. .I q ; *.                                          ",
"                                  a o & q Y %.Y.Y.(./.I.D.R.L.D.N.z.+.U u = o X O t                                             ",
"                                  m v j.M.t. X7X8X8X6X|._._._.).L.N.+.{ U H 4 O ,.                                              ",
"                              >.I n.~.,X%XF.D.E.`.`.*X>X2X2X=X'.S.X.{ Y m = . . <.                                              ",
"                          p P Z.%X2X>X].).W.W.W.).).R.D.N.B.n.| I u 0 c 0 O . . ,.                                              ",
"                          t 9 U Y T } | X.B.N.z.D.E.E.E.C.X.G ; = < 0 l z l 4 1 , i <.                                          ",
"                                  p # = ; q G U $.T.R.V.Z 7 = ; : < : # = - 4 h H W ~ E 9.                                      ",
"                                      r P oX&X:X%X'.C.[ N o . X O o = 0 z Q ` u.6.5.` ! ~ E                                     ",
"                                      t b S.^.[.^.A.I 9 o . . . X X 1 l / u.f..X X X Xf.` , ,.                                  ",
"                                      t v A z.V.n.T w o . . . . + 4 l F ) s. X@X$X$X@X#Xp.l a =.                                ",
"                                      t 7 A z.l.C q = X . . o , 0 z L ! ' f.g.d.i.5.' ' ! u ; O =.                              ",
"                                      r ; v n n e o . X @ 1 0 z F F K ` 3.' ) x u D G m u ; O . *.                              ",
"                                        *.> o - - @ $ 5 h j F F F F K ` ! h 3 , m  .X.X.P ; . X *.                              ",
"                                          t = l h % 5 z F F F z L K _ 3.! - = c } b.V.z.C * t :.                                ",
"                                          i , x z h h F K K ! ( ' 5.4.3.W = 6 I A.^.}.J.A * ,.                                  ",
"                                          p 3 ! / z K 4.p.p.d.h.h.d.` , . . v m.OX3X3X].l.7 ,.                                  ",
"                                          s , H x 4 L a. X.XXXXXd.' c = . . I &X9X2X-X^.j.8 ,.                                  ",
"                                          a . . $ k l z K _ ' _ x = . . . O I :X3X[.H.@.m = ,.                                  ",
"                                          f . . O $ 5 l z z h 1 # . . . O y &.:X>X].Z.U l g                                     ",
"                                          a . . X $ % % % % % $ # . . . ; P n.~.).W.v.7 -.                                      ",
"                                          y . . j y.U.U.y.e.L # = 4 3 O 7 ..V.E.E.E.l.6 -.                                      ",
"                                          a . . h e.r.r.] 5 X . . . X X v V.W.).R.x.C * R                                       ",
"                                      d t O O 4 0 , + - + . . . . . O 0 [ H.E.).C.O.j + -.                                      ",
"                                      t . . < ! x # X + @ . . o = m  .Z.T.W.).).b.b E                                           ",
"                                  1.s O . . y 4.( # X $ + o b S.+X:X:X,X-X`.R.D.S 7 R                                           ",
"                                  p # 5 - O k u.` 1 X + @ o 9 &.oX4X2X-X]._.R.x.V 8 R                                           ",
"                                  a = l 4 # k u.` - X $ + X 7 +.~.%X{._.).).D.$.N : R                                           ",
"                                  a - l 4 O > c k $ + $ + . = n +.R.W.).T.M.[ q = o i 7.                                        ",
"                                    1.y = o . . . $ $ $ $ . . . 6 M C C M w - X o - # X i 7.                                    ",
"                                        *.> O # - + @ + X X . o o . . . . X - k Q / / c , o ,.                                  ",
"                                          s 2 Q ! z y k y 3 , $ X . O , h x ( s.f.d.u.3.Q 1 1.                                  ",
"                                          7.>.3.6.s.d.s.i.3.W # . . , W 3.i.d.s.i.4.2._ J 4 ;.                                  ",
"                                              s t W / / / / c # . . # 4 x ( ` _ ( / Q x h 5 $ O o X d                           ",
"                                              d X + $ $ $ $ $ $ @ . O r y k c c h 1 $ % 5 z k 5 $ # o . =.                      ",
"                                              a . . X % % % % $ @ . :.    :.< $ $ $ 4 z J J J J J z 0 O =.                      ",
"                                      a > > - - $ O - l z z h + . . ,.        p , k ! ` 3.3.3.3.) J 4 O =.                      ",
"                                  f @ $ $ $ 5 l z z z z z z k 1 + X ,.    d = h K ` 6.d.g.g.s.4.! 4 # X =.                      ",
"                              *.y l l z z l z F F F F F z z h 1 + . ,.    s k a.XX#X Xh.g.f.4.c 1 > -.                          ",
"                              s , l z F F F F F F F F z l 5 % $ + X ,.    s k i.h.h.f.6.! y # # R                               ",
"                                  p o O + O o # # # # o o X X . -.        s o - 2 , , - *.                                      ",
"                                                                                                                                ",
"                                                                                                                                ",
"                                                                                                                                ",
"                                                                                                                                ",
"                                                                                                                                "
};
