/* XPM */
static char *_b561c45d9134d68f5daf4e8140a5538Cs4KchZ2pynVTPYT[] = {
/* columns rows colors chars-per-pixel */
"64 64 217 2 ",
"   c None",
".  c #14130B",
"X  c #1B160D",
"o  c #1B1A0E",
"O  c #16180B",
"+  c #171710",
"@  c #1D1C12",
"#  c #1F1F19",
"$  c #21170E",
"%  c #23190F",
"&  c #231D12",
"*  c #2B1C12",
"=  c #1F2212",
"-  c #1F220E",
";  c #21270F",
":  c #242315",
">  c #2B2415",
",  c #262D12",
"<  c #24241B",
"1  c #2C261B",
"2  c #2D2B19",
"3  c #2D2817",
"4  c #332316",
"5  c #332B1A",
"6  c #3C2C1B",
"7  c #372917",
"8  c #2E321A",
"9  c #293512",
"0  c #33331A",
"q  c #3D321D",
"w  c #363A1E",
"e  c #363A19",
"r  c #2C2C23",
"t  c #2B2B24",
"y  c #312F26",
"u  c #392F20",
"i  c #33332A",
"p  c #393826",
"a  c #373731",
"s  c #3B3B33",
"d  c #3F3F3A",
"f  c #42321E",
"g  c #4B3B17",
"h  c #412D1A",
"j  c #433521",
"k  c #443A22",
"l  c #4C3D24",
"z  c #413C2E",
"x  c #4B3D29",
"c  c #4B3626",
"v  c #3B4C16",
"b  c #39441D",
"n  c #3F5416",
"m  c #3F5318",
"M  c #3E4323",
"N  c #3C4328",
"B  c #42541C",
"V  c #445B18",
"C  c #46581B",
"Z  c #44451D",
"A  c #4C641A",
"S  c #4F691B",
"D  c #526C1C",
"F  c #59781C",
"G  c #7C601C",
"H  c #464223",
"J  c #4F4025",
"K  c #444C24",
"L  c #4D412B",
"P  c #474A29",
"I  c #514226",
"U  c #54432B",
"Y  c #58482F",
"T  c #584B25",
"R  c #4C5429",
"E  c #4E5D2A",
"W  c #495427",
"Q  c #575B25",
"!  c #525D2D",
"~  c #555628",
"^  c #43433C",
"/  c #4A4537",
"(  c #5C4B32",
")  c #584935",
"_  c #5E5F30",
"`  c #654A26",
"'  c #785C28",
"]  c #614E34",
"[  c #684F3A",
"{  c #635036",
"}  c #64523A",
"|  c #6B563C",
" . c #6C583E",
".. c #695337",
"X. c #715A3E",
"o. c #5B6C25",
"O. c #54632C",
"+. c #5A6D2C",
"@. c #566526",
"#. c #5E7926",
"$. c #5D732B",
"%. c #5A7322",
"&. c #52672A",
"*. c #627B23",
"=. c #66792A",
"-. c #617523",
";. c #656835",
":. c #697535",
">. c #777739",
",. c #70612A",
"<. c #4C4C45",
"1. c #4E4E49",
"2. c #474741",
"3. c #534D44",
"4. c #53534D",
"5. c #595D4C",
"6. c #5C5A53",
"7. c #5B5B56",
"8. c #6E5B41",
"9. c #6B5E4A",
"0. c #725C42",
"q. c #615E52",
"w. c #5C6742",
"e. c #7C6245",
"r. c #64635B",
"t. c #616157",
"y. c #6F7059",
"u. c #676762",
"i. c #6C6B64",
"p. c #696762",
"a. c #78786C",
"s. c #767672",
"d. c #7D7D79",
"f. c #797976",
"g. c #8A6B1E",
"h. c #92782E",
"j. c #816549",
"k. c #85694B",
"l. c #8A6C4D",
"z. c #816347",
"x. c #947453",
"c. c #997655",
"v. c #9D7C55",
"b. c #9F7A59",
"n. c #8E704F",
"m. c #A37E5A",
"M. c #668B1F",
"N. c #678B1F",
"B. c #6A921E",
"V. c #729E1F",
"C. c #638323",
"Z. c #668A20",
"A. c #6A8E24",
"S. c #6D8C2C",
"D. c #67842A",
"F. c #778D2B",
"G. c #6D9422",
"H. c #6E9920",
"J. c #739D23",
"K. c #799D2A",
"L. c #74982B",
"P. c #6D8535",
"I. c #77883B",
"U. c #789932",
"Y. c #75A222",
"T. c #7DAC24",
"R. c #7BA629",
"E. c #7C8C4A",
"W. c #AF8E35",
"Q. c #83B525",
"!. c #85BA26",
"~. c #89BE27",
"^. c #84B32C",
"/. c #86BA28",
"(. c #89BC2A",
"). c #84A639",
"_. c #8AB639",
"`. c #94B02D",
"'. c #C9AC2E",
"]. c #8AC027",
"[. c #8CC12A",
"{. c #92C531",
"}. c #9ACD3C",
"|. c #93C834",
" X c #8FC232",
".X c #BAD33E",
"XX c #819B48",
"oX c #AC855D",
"OX c #AF895C",
"+X c #B38C5F",
"@X c #83A247",
"#X c #93B849",
"$X c #93AE4C",
"%X c #A7BE4C",
"&X c #98967C",
"*X c #BB9162",
"=X c #AB987C",
"-X c #C19665",
";X c #9BCC43",
":X c #9BC648",
">X c #9ED142",
",X c #A3D64A",
"<X c #A6D94B",
"1X c #ADD55D",
"2X c #A8D753",
"3X c #AEC154",
"4X c #AFE155",
"5X c #B5E55B",
"6X c #B8E85F",
"7X c #B4DD62",
"8X c #BCEC64",
"9X c #B9E464",
"0X c #BFF067",
"qX c #DDD449",
"wX c #E7E34B",
"eX c #C1F169",
"rX c #8F8F8C",
/* pixels */
"                                                                                                                                ",
"                                                                                                                                ",
"                                                      <.O . . . i                                                               ",
"                                                  r.t a 1.1.2.< . . 2.                                                          ",
"                                                i < ^         u.i + . +                                                         ",
"                                                d s.              y . +                                                         ",
"                                                d d.              i . O                                                         ",
"                                                d f.              a . +                                                         ",
"                                                d d.        4.4.2.# . . i 1.4.4.4.                                              ",
"                                                d d.    i./ 0 v n n V S D D A n b N r.                                          ",
"                                      s.rX    rXs.    q.5 j T *.B.Y.^.;X>X>X_.Y.C.&.b /                                         ",
"                                        i.^ ^ f.  a.P K ~ T ~ *.V.Q.>X8X0X8X,X(.Y.N.Q j @ 4.                                    ",
"                                                s w O.#.N.$.o.C.V.Q.}.5X6X5X>X].Y.Z.+.K : 1.                                    ",
"                                                / M O.#.B.B.B.B.Y.Q.].[.[.[.].!.Y.Z.$.W w : @                                   ",
"                                        7.a i y : w E #.G.R.Q.Q.!.].].].].].].!.Y.M.A.%.T 5 @ u.                                ",
"                                        9.Z S F A.Z.C.o.~ +.D.^.].].].].].].T.V.B.B.B.C.@.K 2 i 1.                              ",
"                                          &X;.=.J.T.T.R.S.+.O.=.S.J.T.~.}.<X<X}._.T.H.A.C.C.D.B <                               ",
"                                              a.@.F Y.T.(.K.S.S.S.B.B.F._.<X5X8X4X>X^.T._.:X,XD.8                               ",
"                                                i 9 A *.L.R.Q.Q.T.Y.N.F ).`.3X3X3X#X).U.@X@X@XE.i.                              ",
"                                                1.t @ 5 I o.N.B.Y.!.Q.V.W.'.W.W.>._ +.W 8 : > a.                                ",
"                                                    r 3 l R $.R.[.{.{.{.<XwXwXqX$Xh.F.S.$._ ' =X                                ",
"                                                    1 . @ N $.R.}.5XeX0X<X|.[.`.Q.F.3X2XU.A : i.                                ",
"                                                    < . X q J K E ;.S.K.Y.Y.T.!././.[.;X2X#XC.E <.                              ",
"                                            t.3.3.s @ > q k k > : H ~ +.S.T.!./.T.J.D.=.:.:.$.b <                               ",
"                                          r./ k f 4 * > 6 g k 2 : 3 w E P.Q.L.=.A K M p 2 2 8 5.                                ",
"                                      s.3.L  .X.| ( c f 6 h 6 1 @ . = w #.^.).XXE.P.#.C : i t.                                  ",
"                                    6.: { e.k.x.m.x.e.{ l q 4 % O . . . B L._.4X2X:X_.#.9 4.                                    ",
"                                    1.5 j.OX*X-X-X+Xc.X.I J c 6 * O . . 5 ~ S.^.Y.M.+.K - 4.                                    ",
"                                s.@ < H n.+X+X*X*XoXc.X.l l l I q & O . > H o.N.B.M.$.K = 1.                                    ",
"                                u.O : 0 p H p Y 8.l.x.8.U l I I J l 5 X . o w @.#.M.M.S , @ <                                   ",
"                              <.i 2 M E %.D E M 2 x 0.0...Y l l J J l j 7 : : : ; , , - O . . i.                                ",
"                              < 8 R $.C.M.#.K 8 @ > j ) | ( I I J J I x g f 4 % % o . . . . .                                   ",
"                            ^ : W L._.#XJ.D 9 & % % 4 Y j. .( I J J J J J H 6 4 7 7 & . . . .                                   ",
"                          y o 0 S.,X5X1XU.C : X * 4 h ] e.j.e.X...( ( ( Y Y c f x L : O + O .                                   ",
"                          i 0 Q $X8X5X:X_ 1 @ . % 6 l I Y e.x.m.v.l.k.k.e. .( U } } 2 X 5 2 O                                   ",
"                          p n L.:X8X:XA.e & y t X > k l I ] e.m.+X+XOXoXn. .Y J ( ( 3 @ j 5 X                                   ",
"                          p A (.2X9X>.k &       y X * f l I T | 0.0...T I J 6 4 f j * & j q X                                   ",
"                      4.s H =.(.<X1XO.s         i % * f l l l I U U I l f 4 * * & X O : K M o                                   ",
"                      a , R S.(.|._.m s           p.t * 4 : % ; * 4 4 4 4 * * * % $ O 9 D S 8 i <.                              ",
"                      s e $.J.(.].T.v a           ^ @ $ * X O 3 5 * h ` ' g.g.G g X . , F %.H 2 <                               ",
"                      d v G.Q.~.].T.v s         t . . @ * > 7 c c f f I ' W.h.h.g . . , F #.~ 0 <                               ",
"                      N B T.].].].T.C z         t . O * 7 c I l J J 6 o 7 ` ' ` 4 . . , D #.$.K 5 r.                            ",
"                      s V T.~.].|. XI._ W w.    t X * q l I I I J J g 5 & + . . @ & $ ; K $.M.#.~ b N                           ",
"                      s n J./.[.,X6X8X9X7XE.p & * 6 k l I l l I J J ..l.) % . @ x [ 4 ; W +.C.A.N.N.F b ^                       ",
"                      s 8 O.S.~.[.|.2X1X>.z o . X 3 l I I l I l J J [ x.[ 4 $ * [ j.u = P O.O.$.N.o.J > a                       ",
"                          N V B.T.[.|.|.R.C.9 O X 1 l l I I I I ] j.x.m.[ 4 $ . & 1 + O 2 M ! O.O.! W 2 a                       ",
"                          i 0 Q D.Y.T.R.A w.    u c 0.k.k.k.l.k.l.c.z.x h * $ . . . . . @ 8 R ! ! P e : a                       ",
"                            6.8 e v m w.E.        i.) Y x x x L U Y c 4 * $ . . . . . . . o 8 8 8 , y t.                        ",
"                                                    t & 1 > > X . X $ $ X O @ 3 j k & . . i r.                                  ",
"                                                  i.y j Y I j & . . X & 1 5 x | l.k.x % . 4.                                    ",
"                                                i 5 l ] 8.( x & . o 5 Y } 0.k.x.x.l.] f o 4.                                    ",
"                                                y 3 l ( 8.8.( 1 : f [ l.c.c.k.8.8.8.Y q @ 1.                                    ",
"                                                y & 4 j x [ 8.[ U 6 6 U { 0.0.| ( x 6 > @ & i i s                               ",
"                                            6.a * % * * 4 6 4 4 & X $ 4 j U Y Y ( 8.z.z.e.l.c.c.c.0.6.                          ",
"                                          <.1 % * * * * * * * . a   i.t 4 l Y 8.0.n.c.m.b.m.oXb.k.L a                           ",
"                                        z X % 4 6 f h h h 4 % X y 7.4.& 3 c ] 0.x.m.m.c.b.x.l.0.] 0 i                           ",
"                                        d X * 7 l I l I l f 4 & X X X . * j ) 8.j.x.c.x.k.| U j q 3.                            ",
"                                        d X * 7 l l I I I l l 6 4 4 * O X * x { } 8.0.| x z / ^ 1.                              ",
"                                        6.y * 4 f l I l l I l I I x 6 X X * 5 j k k z a a                                       ",
"                                            i @ * h l I x l I l x I q O . . O X O i                                             ",
"                                                i & < > : < > : < < < & u.                                                      ",
"                                                                                                                                ",
"                                                                                                                                ",
"                                                                                                                                "
};
