/* XPM */
static char *_2f06c0c5cac45169f3e780b50051ad2zKm9iZFNI9FCPAlL[] = {
/* columns rows colors chars-per-pixel */
"64 64 207 2 ",
"   c None",
".  c #14130B",
"X  c #1A160D",
"o  c #17190C",
"O  c #1B1A0E",
"+  c #181710",
"@  c #1B1B12",
"#  c #22190F",
"$  c #28190F",
"%  c #231C11",
"&  c #2B1C11",
"*  c #1C210E",
"=  c #21270F",
"-  c #21280F",
";  c #232214",
":  c #2B2315",
">  c #252B12",
",  c #2A2A16",
"<  c #24241C",
"1  c #2B251A",
"2  c #2B2B1B",
"3  c #332316",
"4  c #342618",
"5  c #342C1B",
"6  c #3B2C1B",
"7  c #273111",
"8  c #2A3212",
"9  c #2F3B13",
"0  c #2F321A",
"q  c #303E14",
"w  c #33331D",
"e  c #3B321E",
"r  c #353B1D",
"t  c #373A19",
"y  c #2C2C25",
"u  c #322E23",
"i  c #323323",
"p  c #3B3421",
"a  c #34342B",
"s  c #3B362B",
"d  c #393820",
"f  c #3B3B33",
"g  c #3B3B37",
"h  c #42341F",
"j  c #423622",
"k  c #453A23",
"l  c #4B3D24",
"z  c #433B2D",
"x  c #4C3C2A",
"c  c #523D2B",
"v  c #443F34",
"b  c #354414",
"n  c #3A441C",
"m  c #3C4A1A",
"M  c #394817",
"N  c #3E5018",
"B  c #3B4021",
"V  c #45471F",
"C  c #43541D",
"Z  c #4A5C1D",
"A  c #4A571D",
"S  c #4B631C",
"D  c #536C1C",
"F  c #53691D",
"G  c #59721D",
"H  c #5B7B1D",
"J  c #55711A",
"K  c #4F4025",
"L  c #444E24",
"P  c #4E422A",
"I  c #494621",
"U  c #504126",
"Y  c #54452B",
"T  c #58472D",
"R  c #5A492D",
"E  c #524E26",
"W  c #495224",
"Q  c #495626",
"!  c #535B2D",
"~  c #565726",
"^  c #45453E",
"/  c #4A473D",
"(  c #4B4839",
")  c #594632",
"_  c #5C4C33",
"`  c #534A3B",
"'  c #564735",
"]  c #4B533A",
"[  c #614E34",
"{  c #635036",
"}  c #695237",
"|  c #65533A",
" . c #6B563B",
".. c #6C593E",
"X. c #755C3E",
"o. c #785E39",
"O. c #526523",
"+. c #546A22",
"@. c #5D6C24",
"#. c #576D2B",
"$. c #5B7223",
"%. c #5D742A",
"&. c #5C7920",
"*. c #5A6735",
"=. c #4B6221",
"-. c #627524",
";. c #63782A",
":. c #7B613C",
">. c #464641",
",. c #4A4A44",
"<. c #4B4B46",
"1. c #53524C",
"2. c #585648",
"3. c #565651",
"4. c #5C5C54",
"5. c #5E5E59",
"6. c #524F45",
"7. c #6E5B41",
"8. c #735D42",
"9. c #785F42",
"0. c #635D53",
"q. c #7C6244",
"w. c #7D6449",
"e. c #776045",
"r. c #62625C",
"t. c #6C675F",
"y. c #6C745D",
"u. c #6C6C65",
"i. c #79756E",
"p. c #8F712E",
"a. c #937529",
"s. c #8B6939",
"d. c #816544",
"f. c #896B47",
"g. c #826649",
"h. c #866A4B",
"j. c #8B6D4D",
"k. c #906F4F",
"l. c #94754E",
"z. c #8D6F51",
"x. c #937352",
"c. c #997755",
"v. c #9C7A55",
"b. c #9D7958",
"n. c #A37F57",
"m. c #827B73",
"M. c #5E801C",
"N. c #62851E",
"B. c #668C1E",
"V. c #6A931E",
"C. c #6E991F",
"Z. c #648423",
"A. c #6A8B23",
"S. c #6E8329",
"D. c #6D8C2C",
"F. c #668826",
"G. c #718C2A",
"H. c #6D9521",
"J. c #6F9525",
"K. c #739B25",
"L. c #769928",
"P. c #71942A",
"I. c #789733",
"U. c #768C38",
"Y. c #75A222",
"T. c #79A525",
"R. c #7CAB24",
"E. c #7BA329",
"W. c #7EA03F",
"Q. c #7FB124",
"!. c #7D8A41",
"~. c #7F846F",
"^. c #A78231",
"/. c #B68B2C",
"(. c #82B425",
"). c #86BB26",
"_. c #85BA27",
"`. c #89BE27",
"'. c #88BD25",
"]. c #89BE27",
"[. c #84B529",
"{. c #89BF28",
"}. c #8AB63A",
"|. c #8FBF3B",
" X c #88B037",
".X c #8AC027",
"XX c #8AC027",
"oX c #8DC22D",
"OX c #91C434",
"+X c #A48156",
"@X c #A6825A",
"#X c #A9845C",
"$X c #AF895D",
"%X c #B58D5F",
"&X c #95BE45",
"*X c #99BB53",
"=X c #B68D62",
"-X c #BD9363",
";X c #C29765",
":X c #9BC947",
">X c #A4D54D",
",X c #A6D94B",
"<X c #ABD559",
"1X c #B0DF5B",
"2X c #A2C353",
"3X c #BAEB61",
"4X c #C1F169",
/* pixels */
"                                                                                                                                ",
"                                                                                                                                ",
"                                                                    <.<.                                                        ",
"                                                                  / @ X >.                                                      ",
"                                                                a X $ . . 3.                                                    ",
"                                                          1.* 7 o X X . . >.                                                    ",
"                                                        < , A H 7 . . . . X ;                                                   ",
"                                                      ` k +.H.T.9 . . . 4 k l v m.                                              ",
"                                                  u.*.+.U A.[.R.9 . . . 6 E H G *.r.                                            ",
"                                                r.a Z N.@.E.XXQ.V 5 : o 4 ~ V.V.S w 4.                                          ",
"                                              5.o r $.Y.Y.[.XX[.-.~ A O : n S G O.m O 3.                                        ",
"                              <.* > 8 7 > > O o + L D.XXXXXXXX).T.C.N.b 8 7 8 V @.G - . O - > 7 8 8 < B                         ",
"                              1.=.R.R.R.T.Z.N , @ h G.XXXXXXXXXXXX'.'.(.(.(.(.(.G.K = > V M.K.R.R.R.+.^                         ",
"                                ~.q 8 n O.R.T.H.G E S.XXXXXXXXXXXXXXXXXXXXXXXXXXG.E D V.T.R.$.n 8 0 y.                          ",
"                                      1.> m Z Z.R.L.L.R.).XXXXXXXXXXXXXXXXXXXXR.K.L.R.Z.=.C > ,.                                ",
"                                          u.f n Z.(.(.R.XXXXXXXXXXXXXXXXXXXX'.Q.(.(.F.V a                                       ",
"                                              ^ 0 D.Q.XXXXXXXXXXXXXXXXXXXXXXXXXX[.P.r f                                         ",
"                                                + L D.[._.{.XXXXXXXXXXXXXX`.)._.D.Q *                                           ",
"                                                ; 0 L %.H.Q.).XXXXXXXXXX`.Q.C.%.W 2 o                                           ",
"                                                  f 2 B B.H.R.).XXXXXXXXR.H.B.Q 2 o . u r.                                      ",
"                                                  B @ 2 #.Z.C.T.).XX).R.K.Z.%.0 o + 4 p ` i.i.                                  ",
"                                                  i @ y r O.Z.V.R.R.R.V.Z.+.n > , j { g.f.} x 2.                                ",
"                                            6.; # O , 2 . r O.&.Z.Z.M.H O.B o , P 8.z.$X;X;Xv...Y                               ",
"                                      u.u x | | Y K K j O 2 i r Q ! Q r i 5 + p R ..7.c.-X;X%X+Xh.s                             ",
"                                    ` ) e.+X%X#Xx.8._ l h _ R w i w w 0 ' [ k K U Y ..j.#X-Xq.R T w 2 ,.                        ",
"                                  0.9.x.%X;X;X+Xw.8._ K U Y _ _ _ _ _ _ ' Y K K U U Y ..h.b.[ j K k w i 1.                      ",
"                                <.& } d.l.-X=Xc...{ Y U l U Y _ _ _ _ _ Y K K K K K l [  ._ p 5 ! !.U.F ;                       ",
"                              <.+ ; k x { @Xc.e.{ Y K K U K K K P K K U K K K K c U R T x & . , ! &X,X}.C y.                    ",
"                              >., d l j P w.e.| K K K K l K K K K U U Y U U K K l Y  .x & + i z l L.:X,XK.M /                   ",
"                            o p E ! U x h 4 ) { K K K K K K U l K K Y  ._ K K K l Y  .x % @     @ J R.[.C.M >.                  ",
"                            o F &X*X*.w # X : l | Y K K K K R | Y K R f. .U U U ) 7.z.) % %     @ V S.'.(.@.z >.                ",
"                            O W.<X<XD.q . . $ c j. .R K K K { g.R K R k.k.e.{ e.h.z.h.x a         ` $.).`.J.A 2                 ",
"                            @ *X4X1XK.b . . % c h.h.q..._ | d.x.[ U T w.x.c.x.z.g.X.T 6 f         ,.D _.R.C.D 2                 ",
"                            , *X3X,XK.b y v u 6 [ d.j.z.j.c.c.j.R U Y ..h.v.@Xq.[ k & z           g S R.V.Z.Z ,                 ",
"                          , ~ 2X,X[.A.b g     1 & x _ w.=X@Xj...T U U } 7.7...R l k #           > d O.V.V.O.j a                 ",
"                        1.9 Z._.oXR.~ w         X j K _ e.8. .Y U U U Y { ..7.R h & X         Q E.:X:X[.H.M >.                  ",
"                        1.b V.[.(.Z.n           . 3 h l Y R P U K K U U Y Y Y K h $ .         > Q P.:X>XL.b >.                  ",
"                        1.9 V.Q.T.H >           . $ 4 6 d P ` q.p.a.a.:.| ^ e e 3 $ .         > F Q G.|.-.0 ^                   ",
"                        1.b V.(.T.H *         0.# 4 3 & : s ( e.^./.^.:.` s , & 3 3 # 1.      8 $.Z F.E.I 2.                    ",
"                        1.9 -.(.R.N.>       ^ # 4 k h 3 4 5 p k o.s.:.l d 6 4 4 h k 6 # f     v r F N.F.]                       ",
"                        1.; K E.XXT.L r 1.  g , Y U U l U U R ....8....._ P l l l U U 5 f       y 2 2 /                         ",
"                          X = K.XXOX<X}.F.r @ z j.R U l U [ 7.7.8.7.7.8...| U K U R h.c f                                       ",
"                            o H OX2X X;.n o . 5 } w.} l K { 7.7.7.7.7.7.7.| U U { w. .e f                                       ",
"                            . A  X&X+.S m o . @ 6 } X.q.f.f.w.7.| [ { 7.w.f.f.w.X.} e # f                                       ",
"                            1.z -.T.Z F A o . . O 6 [ j.+X#Xv.j.e.:.X.j.v.#X@Xj.} h $ . s                                       ",
"                                #.J.N.Q e ; O # & % 6 l [ z.+X+X+X+X+X+X+Xl.| U 6 & $ # a                                       ",
"                                  ; O o 2 _ R e o X @ + @ 2 u u 2 i u u < % o % & & & # + y                                     ",
"                                  o . . 1 ..x.s.h j Y x o               4.. . $ & & & & # @                                     ",
"                                  X . . ; ) l.c.d. . .) X                   + $ & & & & # <                                     ",
"                                  + X . O 6 [ 9.9.[ ) j o                   + + # X # : 6 j t.                                  ",
"                                  @ & # X X 6 h j j 4 # .                   + ; : % % l  ...u r.                                ",
"                                  X & & : 3 3 3 3 & # . .                   @ P _ Y Y f.@XX.w 1.                                ",
"                                  @ & 6 l k l l l 3 X . .                   @ ) 7.8.z.b.k.T : o a                               ",
"                                  % h x [ f.v.l.d.c 4 @ .                   @ 3 x T [ [ Y : . . ;                               ",
"                                    p h [ b.=Xn.} 6 & s                     o X & 6 6 6 3 $ # # @ 3.                            ",
"                                      ( j } 9._ p 3.4.                      o . X & 3 6 4 4 3 $ + .                             ",
"                                        >.,.<.>.3.                          + o $ 4 l l U l h & & o                             ",
"                                                                            + $ 4 x l c Y U c h & X                             ",
"                                                                            @ % j 7.h.n.+Xk.[ l j %                             ",
"                                                                              v & x j.n.#Xn.} h u                               ",
"                                                                                2.1 x ) ) ) j /                                 ",
"                                                                                    5.5.5.5.5.                                  ",
"                                                                                                                                ",
"                                                                                                                                "
};
