/* XPM */
static char *result[] = {
/* columns rows colors chars-per-pixel */
"64 64 4 1 ",
"  c #7E2811",
". c #912E14",
"X c #963015",
"o c #FFC9C9",
/* pixels */
"XXXXXXXXXXXXXXoo              ooXXXXXXXXXXXXXXoo              oo",
"XXXXXXXXXXXXXXoo              ooXXXXXXXXXXXXXXoo              oo",
"XXXXXXXXXXXXXXoo              ooXXXXXXXXXXXXXXoo              oo",
"XXXXXXXXXXXXXXoo              ooXXXXXXXXXXXXXXoo              oo",
"XXXXXXXXXXXXXXoo              ooXXXXXXXXXXXXXXoo              oo",
"XXXXXXXXXXXXXXoo              ooXXXXXXXXXXXXXXoo              oo",
"oooooooooooooooooooooooooooooooooooooooooooooooooooooooooooooooo",
"oooooooooooooooooooooooooooooooooooooooooooooooooooooooooooooooo",
"      oo              oo              oo              oo        ",
"      oo              oo              oo              oo        ",
"      oo              oo              oo              oo        ",
"      oo              oo              oo              oo        ",
"      oo              oo              oo              oo        ",
"      oo              oo              oo              oo        ",
"oooooooooooooooooooooooooooooooooooooooooooooooooooooooooooooooo",
"oooooooooooooooooooooooooooooooooooooooooooooooooooooooooooooooo",
"XXXXXXXXXXXXXXoo..............oo              oo              oo",
"XXXXXXXXXXXXXXoo..............oo              oo              oo",
"XXXXXXXXXXXXXXoo..............oo              oo              oo",
"XXXXXXXXXXXXXXoo..............oo              oo              oo",
"XXXXXXXXXXXXXXoo..............oo              oo              oo",
"XXXXXXXXXXXXXXoo..............oo              oo              oo",
"oooooooooooooooooooooooooooooooooooooooooooooooooooooooooooooooo",
"oooooooooooooooooooooooooooooooooooooooooooooooooooooooooooooooo",
"XXXXXXoo              oo              ooXXXXXXXXXXXXXXooXXXXXXXX",
"XXXXXXoo              oo              ooXXXXXXXXXXXXXXooXXXXXXXX",
"XXXXXXoo              oo              ooXXXXXXXXXXXXXXooXXXXXXXX",
"XXXXXXoo              oo              ooXXXXXXXXXXXXXXooXXXXXXXX",
"XXXXXXoo              oo              ooXXXXXXXXXXXXXXooXXXXXXXX",
"XXXXXXoo              oo              ooXXXXXXXXXXXXXXooXXXXXXXX",
"oooooooooooooooooooooooooooooooooooooooooooooooooooooooooooooooo",
"oooooooooooooooooooooooooooooooooooooooooooooooooooooooooooooooo",
"              oo              ooXXXXXXXXXXXXXXoo              oo",
"              oo              ooXXXXXXXXXXXXXXoo              oo",
"              oo              ooXXXXXXXXXXXXXXoo              oo",
"              oo              ooXXXXXXXXXXXXXXoo              oo",
"              oo              ooXXXXXXXXXXXXXXoo              oo",
"              oo              ooXXXXXXXXXXXXXXoo              oo",
"oooooooooooooooooooooooooooooooooooooooooooooooooooooooooooooooo",
"oooooooooooooooooooooooooooooooooooooooooooooooooooooooooooooooo",
"      ooXXXXXXXXXXXXXXoo              oo              oo        ",
"      ooXXXXXXXXXXXXXXoo              oo              oo        ",
"      ooXXXXXXXXXXXXXXoo              oo              oo        ",
"      ooXXXXXXXXXXXXXXoo              oo              oo        ",
"      ooXXXXXXXXXXXXXXoo              oo              oo        ",
"      ooXXXXXXXXXXXXXXoo              oo              oo        ",
"oooooooooooooooooooooooooooooooooooooooooooooooooooooooooooooooo",
"oooooooooooooooooooooooooooooooooooooooooooooooooooooooooooooooo",
"              oo              ooXXXXXXXXXXXXXXoo              oo",
"              oo              ooXXXXXXXXXXXXXXoo              oo",
"              oo              ooXXXXXXXXXXXXXXoo              oo",
"              oo              ooXXXXXXXXXXXXXXoo              oo",
"              oo              ooXXXXXXXXXXXXXXoo              oo",
"              oo              ooXXXXXXXXXXXXXXoo              oo",
"oooooooooooooooooooooooooooooooooooooooooooooooooooooooooooooooo",
"oooooooooooooooooooooooooooooooooooooooooooooooooooooooooooooooo",
"XXXXXXoo              oo              oo              ooXXXXXXXX",
"XXXXXXoo              oo              oo              ooXXXXXXXX",
"XXXXXXoo              oo              oo              ooXXXXXXXX",
"XXXXXXoo              oo              oo              ooXXXXXXXX",
"XXXXXXoo              oo              oo              ooXXXXXXXX",
"XXXXXXoo              oo              oo              ooXXXXXXXX",
"oooooooooooooooooooooooooooooooooooooooooooooooooooooooooooooooo",
"oooooooooooooooooooooooooooooooooooooooooooooooooooooooooooooooo"
};
