/* XPM */
static char *result[] = {
/* columns rows colors chars-per-pixel */
"64 64 6 1 ",
"  c #271A15",
". c #391F21",
"X c #5D2C28",
"o c #8A4836",
"O c #BF6F4A",
"+ c #E69C69",
/* pixels */
"                                                                ",
"OOOOOOOOOOOOOOOOOOOO+.  XOOOOOOOOOOOOOOOOOOOOOOOOO+ OOOOOOOOOOOO",
"ooooooooooooooooooooO+. XoooooooooooooooooooooooooO Xooooooooooo",
"oooooooooooooooooooooO+ XoooooooooooooooooooooooooO Xooooooooooo",
"ooooooooooooooooooooooO XoooooooooooooooooooooooooO Xooooooooooo",
"ooooooooooooooooooooooO XoooooooooooooooooooooooooO Xooooooooooo",
"ooooooooooooooooooooooO XooooooooooXXXooooooooooooO Xooooooooooo",
"oooooooooooooXooooooooO XooooooooXXoooooooooooooooO Xooooooooooo",
"oooooooooooooXooooooooO XoooXXXXXoooooooooooooooooO Xooooooooooo",
"ooooooooooooooXXXoooooO .XXXoooooXooooooooooooooooO Xooooooooooo",
"ooooooXoooooXX...XooXoO .oooooooooXoooooooooooooooO XooooXoooooo",
"oooooooXXooX..  .XoXooO XoooooooooXoooooooooooooooO XooooXoooooo",
"oooooooooXX..    .XooX. XoooooooooooooooooooooooooO .XXoXooooooo",
"ooooooooX....     .XX.  XoooooooooooooooooooooooXX.  ..Xoooooooo",
"XXXXXXXX......     ..   .XXXXXXXXXXXXXXXXXXXXXXX..     .XXXXXXXX",
"      .........                                                 ",
"       OOOooXX....XOOOOoOOOOOOOOOO+.   OOOOOOOOOOOOOOOOOOOOOOOOO",
".....  XooOOoX..XXoooooXooooooooooO+.. Xoooooooooooooooooooooooo",
"XXXX.. XooooXXXXooooooXooooooooooooO++ Xoooooooooooooooooooooooo",
"XXXXX. XoooooXooXoooooXoooooooooooooOO Xoooooooooooooooooooooooo",
"XXXXX. XooooXooooooooXoooooooooooooooO Xoooooooooooooooooooooooo",
"XXXXX. XoooooooooooooXoooooooooooooooO XoooXXooooooooooooooooooo",
"XXXXX. XooooooooooooXoXooooooooooooooO XoooooXoooooXXoXooooooooo",
"XXXXX. XooooooooooooXoXooooooooooooooO XooooooXoooXooXoooooooooo",
"XXXXX. XoooooooooooXooooooooooooooXooO XooooooXooXooooXooooooooo",
"XXXXX. XoooooooooooooooooooooooooooXoO XoooooooXoXoooooXoooooooo",
"XXXXX. XooooooooooooooooooooooooooooXo XooooooooXooooooooooooooo",
"XXXXX. XoooooooooooooooooooooooooooooO XooooooooXooooooooooooooo",
"XXXXX. XoooooooooooooooooooooooooooooO XoooooooXoooooooooooooooo",
"XXXXX. .XooooooooooooooooooooooooooooO XXooooooXoooooooooooooooo",
"XXXXX.  .XXoooooooooooooooo..ooooooooO ..XooooXooooooooooooooooo",
"XXXXXX.  ..XXXXXXXXXXXXXXX.  .XXXXXXXX   .XXXX.XXXXXXXXXXXXXXXXX",
"XXXXXXX.                                                        ",
"OOOOOOOOOOOOOoOOOOOOO+. OOOOOOOOOOOOOOOOOOOOOOO+.   OOOOOOOOOOOO",
"ooooooooooooXooooooooO+ XooooooooooooooooooooooO+.  Xooooooooooo",
"oooooooooooXooooooooooO XoooooooooooooooooooooooO+. Xooooooooooo",
"oooooooooXXoooooooooooO XoooooooooooooooooooooooO+. Xooooooooooo",
"ooooooooXoooooooooooooO XooooooooooooooooooooooooO+ XoooooooooXX",
"ooooooXXooooooooooooooO XooooooXooooooooooooooooooO XooooooXXX..",
"oooooXooXoooooooooooooO XooooooXooooooooooooooooooO XooooXX.....",
"ooooXoooXoooooooooooooO XoooooXoooooooooooooooooooO XoooooXXX...",
"ooXXoooooXooooooooooooO XoooooXoooooooXoooooooooooO XooooooooXXX",
"oXooooooooooooooooooooO XooooXoooooooooXooooooooooO Xooooooooooo",
"XoooooooooooooooooooooO XoooooooooooooooXXooooooooO Xooooooooooo",
"oooooooooooooooooooooX. XoooooooooooooooooXoooooooO Xooooooooooo",
"ooooooooooooooooooooX.  .Xoooooooooooooooooooooooo. Xooooooooooo",
"XXXXXXXXXXXXXXXXXXXXX.   .XXXXXXXXXXXXXXXXXXXXXXXX. .XXXXXXXXXXX",
"                                                                ",
"        .OOOOXOOOOOOOOOOOOOOOOOOOOOO+.  .OOOOOOOOOOOOOOOOOOOOOOO",
".....   .XooooXoooooooooooooooooooooO+ .oooooooooooooooooooooooo",
"OOOoX. .XoooooXooooooooooooooooooooooO Xoooooooooooooooooooooooo",
"oooOo. XoooooooXoooooooooooooooooooooO Xoooooooooooooooooooooooo",
"ooooO. XoooooooXoooooooooooooooooooooO XooooooooooooooooooooXXoo",
"ooooO. XooooooXoooooooooooooXooooooooO XooooooooooooooooooooooXo",
"oooooO XoooooooXoooooooooooXoooooooooO XoooooooooooooooooooooooX",
"oooooO XooooooXooooooooooooXoooooooooO XooooXooooooooooooooooooo",
"oooooO XoooXoXXoXoooooooooXooooooooooO XooooXooooooooooooooooooo",
"oooooO XooooX..XoooooooooooooooooooooO XoooXoXoooooooooooooooooo",
"oooooO XoooooX..XooooooooooooooooooooO XoooXooXooooooooooooooooo",
"oooooO XooooXoX.XooooooooooooooooooooO .XXXooooooooooooooooooooo",
"oooooO XoooooooXoXoooooooooooooooooooO  .Xoooooooooooooooooooooo",
"oooooO XooooooXooooooooooooooooooooooO  .Xoooooooooooooooooooooo",
"XXXXXX .XXXXX.XXXXXXXXXXXXXXXXXXXXXXXX   .XXXXXXXXXXXXXXXXXXXXXX",
"                                                                "
};
